<?xml version="1.0" standalone="no"?>
<!DOCTYPE svg PUBLIC "-//W3C//DTD SVG 1.1//EN" "http://www.w3.org/Graphics/SVG/1.1/DTD/svg11.dtd" >
<svg xmlns="http://www.w3.org/2000/svg">
<metadata>
Created by FontForge 20120731 at Fri Jan  1 17:38:39 2016
 By Ads
</metadata>
<defs>
<font id="iconfont" horiz-adv-x="1024" >
  <font-face 
    font-family="iconfont"
    font-weight="500"
    font-stretch="normal"
    units-per-em="1024"
    panose-1="2 0 6 3 0 0 0 0 0 0"
    ascent="896"
    descent="-128"
    x-height="792"
    bbox="-1 -225 5138 895"
    underline-thickness="50"
    underline-position="-100"
    unicode-range="U+0078-E675"
  />
<missing-glyph horiz-adv-x="374" 
d="M34 0v682h272v-682h-272zM68 34h204v614h-204v-614z" />
    <glyph glyph-name=".notdef" horiz-adv-x="374" 
d="M34 0v682h272v-682h-272zM68 34h204v614h-204v-614z" />
    <glyph glyph-name=".null" horiz-adv-x="0" 
 />
    <glyph glyph-name="nonmarkingreturn" horiz-adv-x="341" 
 />
    <glyph glyph-name="x" unicode="x" horiz-adv-x="1001" 
d="M281 543q-27 -1 -53 -1h-83q-18 0 -36.5 -6t-32.5 -18.5t-23 -32t-9 -45.5v-76h912v41q0 16 -0.5 30t-0.5 18q0 13 -5 29t-17 29.5t-31.5 22.5t-49.5 9h-133v-97h-438v97zM955 310v-52q0 -23 0.5 -52t0.5 -58t-10.5 -47.5t-26 -30t-33 -16t-31.5 -4.5q-14 -1 -29.5 -0.5
t-29.5 0.5h-32l-45 128h-439l-44 -128h-29h-34q-20 0 -45 1q-25 0 -41 9.5t-25.5 23t-13.5 29.5t-4 30v167h911zM163 247q-12 0 -21 -8.5t-9 -21.5t9 -21.5t21 -8.5q13 0 22 8.5t9 21.5t-9 21.5t-22 8.5zM316 123q-8 -26 -14 -48q-5 -19 -10.5 -37t-7.5 -25t-3 -15t1 -14.5
t9.5 -10.5t21.5 -4h37h67h81h80h64h36q23 0 34 12t2 38q-5 13 -9.5 30.5t-9.5 34.5q-5 19 -11 39h-368zM336 498v228q0 11 2.5 23t10 21.5t20.5 15.5t34 6h188q31 0 51.5 -14.5t20.5 -52.5v-227h-327z" />
    <glyph glyph-name="uniE600" unicode="&#xe600;" 
d="M781 812h-509q-24 0 -44.5 -12t-32.5 -32.5t-12 -44.5v-77q0 -37 26 -63t63 -26h509q36 0 62 26t26 63v77q0 24 -11.5 44.5t-32 32.5t-44.5 12zM811 646q0 -13 -9 -21.5t-21 -8.5h-509q-12 0 -21 8.5t-9 21.5v77q0 13 9 21.5t21 8.5h509q5 0 9.5 -1.5t8 -4t6.5 -6.5
t4.5 -8.5t1.5 -9.5v-77zM781 538h-509q-37 0 -63 -26t-26 -63v-548q0 -37 26 -63t63 -26h509q36 0 62 26t26 63v548q0 37 -26 63t-62 26zM811 -99q0 -13 -9 -21.5t-21 -8.5h-509q-12 0 -21 8.5t-9 21.5v548q0 12 9 21t21 9h509q12 0 21 -9t9 -21v-548zM632 354q-12 2 -23 2
q-25 0 -46.5 -9.5t-38.5 -24.5q-36 34 -84 34q-11 0 -23 -2q-11 -2 -21.5 -6t-19.5 -9.5t-17 -12.5t-14.5 -15t-11.5 -18t-8 -20q-11 -37 0.5 -74.5t40.5 -64.5q45 -40 121 -115l17 -17l20 -20l21 20l16 16q75 74 121 116q30 27 41 64.5t1 74.5q-6 21 -19.5 38t-32 28
t-40.5 15zM643 178q-47 -43 -119 -114q-72 72 -118 114q-17 15 -23.5 36.5t-0.5 41.5q9 34 45 40q7 1 13 1q16 0 30.5 -8.5t20 -15t8.5 -12.5l25 -43l26 43q3 6 8.5 12.5t20 15t30.5 8.5q3 0 6 -0.5t7 -0.5q36 -6 45 -40q4 -13 2.5 -27.5t-8.5 -27.5t-18 -23z" />
    <glyph glyph-name="uniE602" unicode="&#xe602;" 
d="M228 -153l55 -55l509 508l-509 509l-55 -55l454 -454zM228 -153z" />
    <glyph glyph-name="uniE603" unicode="&#xe603;" 
d="M299 352h426l-213 256zM725 224h-426l213 -256z" />
    <glyph glyph-name="uniE604" unicode="&#xe604;" 
d="M684 423l-173 -173l-173 173l-49 -48l181 -181l33 -32v-1l8 -7l7 7v1l214 213z" />
    <glyph glyph-name="uniE605" unicode="&#xe605;" 
d="M513 747q-73 0 -141.5 -23t-123.5 -64.5t-96.5 -96.5t-64 -123.5t-22.5 -141.5q0 -91 35.5 -174t95.5 -143t143 -95.5t174 -35.5t174 35.5t143 95.5t95.5 143t35.5 174.5t-35.5 174.5t-95.5 143t-143 95.5t-174 35.5zM513 -91q-106 0 -195.5 52t-141.5 142t-52 195.5
t52 195t141.5 142t195.5 52.5t195.5 -52.5t141.5 -142t52 -195t-52 -195.5t-141.5 -142t-195.5 -52zM513 298zM169 298q0 94 46 173.5t125.5 125.5t172.5 46q56 0 108.5 -17.5t95 -49.5t74.5 -74t49.5 -94.5t17.5 -109.5q0 -93 -46.5 -172.5t-125.5 -125.5t-173 -46
q-139 0 -239 97q-100 96 -105 235v12z" />
    <glyph glyph-name="uniE606" unicode="&#xe606;" 
d="M340 165l173 173l173 -173l49 48l-181 181l-33 32v1l-8 7l-7 -7v-1l-214 -213z" />
    <glyph glyph-name="uniE607" unicode="&#xe607;" 
d="M389 460l173 -173l-173 -173l48 -49l181 181l32 33h1l7 8l-7 7h-1l-213 214z" />
    <glyph glyph-name="uniE608" unicode="&#xe608;" 
d="M635 116l-173 173l173 173l-48 49l-181 -181l-32 -33h-1l-7 -8l7 -7h1l213 -214z" />
    <glyph glyph-name="uniE609" unicode="&#xe609;" 
d="M192 -147v895h640v-895h-640zM518 -111q24 0 41.5 17t17.5 42t-17.5 42.5t-42 17.5t-42 -17.5t-17.5 -42.5t17.5 -42t42.5 -17zM767 684h-511v-639h511v639zM767 684z" />
    <glyph glyph-name="uniE60A" unicode="&#xe60a;" 
d="M230 296l503 -502l61 63l-441 439l441 441l-61 62z" />
    <glyph glyph-name="uniE60B" unicode="&#xe60b;" 
d="M242 518h-39q-8 0 -13.5 -5.5t-5.5 -13.5q0 -5 2.5 -9.5t7 -7t9.5 -2.5h39q5 0 9.5 2.5t7 7t2.5 9.5q0 8 -5.5 13.5t-13.5 5.5zM395 480h459q17 3 19 19q0 5 -2.5 9.5t-7 7t-9.5 2.5h-459q-5 0 -9.5 -2.5t-7 -7t-2.5 -9.5q0 -8 5.5 -13.5t13.5 -5.5zM242 288h-39
q-8 0 -13.5 -5.5t-5.5 -13.5t5.5 -13.5t13.5 -5.5h39q8 0 13.5 5.5t5.5 13.5t-5.5 13.5t-13.5 5.5zM854 288h-459q-17 -3 -19 -19q0 -8 5.5 -13.5t13.5 -5.5h459q8 0 13.5 5.5t5.5 13.5t-5.5 13.5t-13.5 5.5zM242 58h-39q-8 0 -13.5 -5.5t-5.5 -13.5t5.5 -13.5t13.5 -5.5h39
q8 0 13.5 5.5t5.5 13.5q0 5 -2.5 9.5t-7 7t-9.5 2.5zM854 58h-459q-4 0 -7.5 -1.5t-6 -4t-4 -6t-1.5 -7.5q0 -2 0.5 -4.5t1.5 -4.5l4 -4q1 -2 3 -3t4.5 -2t5.5 -1h459q4 0 7.5 1.5t6 4t4 6t1.5 7.5t-1.5 7.5t-4 6t-6 4t-7.5 1.5z" />
    <glyph glyph-name="uniE60D" unicode="&#xe60d;" 
d="M508 436q23 0 43.5 9t37.5 25q33 33 33 79.5t-33.5 79.5t-81 33t-81 -33t-33.5 -79.5t33 -79.5q11 -11 24 -18.5t27.5 -11.5t30.5 -4zM455 601q7 7 15.5 11.5t18 7t18.5 2.5q31 0 52.5 -21t21.5 -51.5t-21.5 -51.5t-52 -21t-52.5 21q-21 21 -21 51.5t21 51.5zM931 28
l-104 207q-2 3 -4 5t-4 3.5t-5 2t-6 0.5h-98q-9 0 -14.5 -5.5t-5.5 -14.5q0 -4 1.5 -7.5t4 -6.5t6.5 -4.5t8 -1.5h86l84 -167h-737l85 167h55q8 0 14 6t6 14q0 3 -1 6l-2 4q-1 3 -3 4l-4 4q-2 1 -5 1.5t-5 0.5h-68q-3 0 -6.5 -1t-6.5 -3.5t-5 -6.5l-104 -207q-3 -5 -2.5 -10
t2.5 -10q6 -9 18 -9h802q11 0 17 9.5t1 19.5zM419 244q20 -40 44 -55t44 -15q53 0 89 70q11 23 57 86q27 37 41.5 58.5t35 55.5t30 61t9.5 49q0 107 -77 183t-186 76q-53 0 -102 -20.5t-84.5 -55t-56 -82.5t-20.5 -101q0 -29 20.5 -72t40 -71.5t55.5 -77.5q48 -66 60 -89z
M506 774q92 0 158 -65q21 -20 35.5 -45t22 -53t7.5 -57q0 -10 -3.5 -22.5t-7.5 -24t-13 -27t-15.5 -26.5t-19 -29t-19.5 -28t-21 -29q-19 -26 -28.5 -39.5t-22 -33t-19.5 -33.5q-12 -23 -25.5 -35.5t-27.5 -12.5q-13 0 -26.5 12.5t-25.5 35.5q-19 36 -77 116
q-33 44 -48.5 67t-31 55t-15.5 54q0 91 65.5 155.5t157.5 64.5z" />
    <glyph glyph-name="uniE60E" unicode="&#xe60e;" 
d="M699 238q40 39 62.5 90.5t22.5 108.5q0 114 -79.5 194t-192.5 80q-74 0 -136.5 -36.5t-99 -99.5t-36.5 -138q0 -29 6 -57t17 -53t26.5 -47.5t35.5 -41.5q-159 -41 -226 -133q-34 -47 -34 -97q0 -30 12 -51.5t34.5 -34t54.5 -20.5t71.5 -10t85.5 -3t97 1h92h92
q50 -1 74.5 -1t66 1t62 4t50.5 8t44.5 14t30 21.5t21.5 30t6 40.5q0 96 -112 168q-64 40 -148 62zM512 -51q-39 0 -88.5 -2t-83 -3.5t-71 -1.5t-61.5 4t-45 12t-30.5 24t-9.5 39q0 55 52 101.5t141.5 73.5t195.5 27q-89 0 -151.5 62.5t-62.5 151.5t62.5 152t151.5 63
q58 0 107.5 -28.5t78 -78t28.5 -108.5q0 -89 -62.5 -151.5t-151.5 -62.5q106 0 195.5 -27t141.5 -73.5t52 -101.5q0 -23 -9.5 -39t-30.5 -24t-45 -12t-61.5 -4t-71 1.5t-83 3.5t-88.5 2z" />
    <glyph glyph-name="uniE60F" unicode="&#xe60f;" 
d="M512 716h-1q-113 0 -208.5 -56t-151 -151.5t-55.5 -208.5t55.5 -208.5t151 -151.5t208.5 -56h1q85 0 162 33t132.5 88.5t88.5 132.5t33 162q0 172 -122 294t-294 122zM529 467q65 2 128 17q10 -38 15.5 -80t5.5 -88h-149v151zM529 500v180q22 -6 44 -27.5t41.5 -56.5
t33.5 -80q-58 -14 -119 -16zM495 680v-180q-20 1 -40.5 3t-40 5t-39.5 8q15 46 34.5 81t41.5 56.5t44 26.5zM495 467v-150h-150q1 90 21 167q64 -15 129 -17zM311 317h-181q5 127 86 226q28 -16 57.5 -28.5t60.5 -21.5q-21 -81 -23 -176zM311 283q2 -94 23 -176
q-62 -19 -118 -50q-81 99 -86 226h181zM345 283h150v-150q-65 -2 -129 -17q-20 77 -21 167zM495 100v-181q-34 9 -66 52.5t-54 112.5q58 14 120 16zM529 -80v180q30 -1 60 -5t59 -11q-21 -68 -53 -111.5t-66 -52.5zM529 133v150h149q0 -45 -5.5 -87t-15.5 -80q-10 3 -20.5 5
t-21 3.5t-21.5 3t-21.5 3t-21.5 2t-22 0.5zM712 283h182q-2 -63 -24.5 -120.5t-61.5 -105.5q-57 32 -119 50q21 82 23 176zM712 317q-1 47 -7 91.5t-16 84.5q62 18 119 50q15 -19 28 -39.5t23 -42.5t17.5 -45.5t12 -48.5t5.5 -51h-182v1zM785 568q-51 -27 -105 -43
q-29 96 -79 147q53 -12 99.5 -39t84.5 -65zM422 672q-49 -51 -79 -147q-11 3 -21 7l-22 8q-10 4 -20.5 8.5t-20.5 9.5l-20 10q38 38 84 64.5t99 39.5zM239 32q25 13 51 24t53 19q30 -96 79 -147q-106 26 -183 104zM601 -72q49 51 79 147q54 -16 105 -43q-77 -79 -184 -104z
" />
    <glyph glyph-name="uniE610" unicode="&#xe610;" 
d="M793 513l-56 56l-225 -225l-225 225l-56 -56l225 -225l-225 -225l56 -56l225 225l225 -225l56 56l-225 225z" />
    <glyph glyph-name="uniE613" unicode="&#xe613;" 
d="M37 263h475v-475l439 914z" />
    <glyph glyph-name="uniE614" unicode="&#xe614;" 
d="M0 666v-878h951v878h-951zM878 -139h-805v585h805v-585zM878 227v73h-147v146h-73v-146h-146v146h-73v-146h-146v146h-74v-146h-146v-73h146v-146h-146v-74h146v-146h74v146h146v-146h73v146h146v-146h73v146h147v74h-147v146h147zM293 81v146h146v-146h-146zM658 81
h-146v146h146v-146zM219 812h-73v-73v-73h73v73h74v-73h73v73v73h-147zM658 812h-73v-73v-73h73v73h73v-73h74v73v73h-147z" />
    <glyph glyph-name="uniE615" unicode="&#xe615;" 
d="M838 422l-4 3q-32 84 -103.5 141.5t-162.5 72.5q-3 1 -7 2h-4q-25 3 -46 3q-107 0 -196 -61t-126 -158q-1 -3 -4 -3q-45 -2 -76.5 -34t-31.5 -77t31.5 -77.5t76.5 -34.5q3 0 4 -3q28 -73 87 -127t136 -77q2 -1 3 -2q14 -26 40 -41.5t56.5 -15.5t56.5 15.5t40 41.5
q1 1 3 2q76 23 135.5 77t87.5 127q0 2 1 2.5t3 0.5q45 2 76.5 34.5t31.5 77t-31.5 77t-76.5 34.5zM577 26q-8 -36 -44 -48q-6 -2 -11 -3t-11 -1q-9 0 -22 4q-35 12 -44 48q-1 9 -1 15q0 5 0.5 9.5t1.5 8.5t3 8l4 8q7 12 18 20t25 12q8 1 15.5 1t15.5 -1q28 -7 43 -32
q9 -16 9 -34q0 -8 -2 -15zM443 135q0 5 5 10t13.5 9.5t21.5 7.5t28 3q12 0 23 -2t19 -5t14 -7t9 -8t3 -8q0 -2 -2.5 -3.5t-4.5 0.5q-28 18 -61 18t-61 -18q-5 -2 -7 3v0zM833 241q-4 0 -10 1l-14 2q-2 0 -3.5 -1t-1.5 -2l-4 -14q-20 -64 -67.5 -113.5t-111.5 -73.5v2
q0 7 -1 14t-3 13.5t-4.5 13t-5.5 12.5q-2 3 0 5q14 17 14 35q0 8 -2 15t-6 13.5t-10 12t-13.5 10.5t-16.5 9t-18.5 6.5t-20.5 4t-23 1.5q-46 0 -77.5 -21t-31.5 -51q0 -18 14 -35q2 -2 0 -5q-14 -25 -14 -53v-2q-64 24 -111.5 73.5t-67.5 113.5l-5 14q-2 2 -4 3l-15 -2
q-6 -1 -10 -1q-19 0 -35.5 9.5t-25.5 25.5t-9 35q0 29 20.5 49.5t49.5 20.5q4 0 10 -1l14 -2q4 -1 5 3l4 13q19 59 60.5 105.5t97.5 73.5q3 1 5 -1t1 -4q-7 -27 7.5 -55t42.5 -41q26 -12 57 -15.5t61 6.5t46 34q10 18 4.5 36t-20.5 31q-13 10 -29.5 15t-33 4t-32.5 -7
q-12 -4 -14 -16t6 -20t19 -4q10 4 18.5 5t17 -0.5t17.5 -6.5q12 -6 10.5 -13t-8.5 -12t-17 -7q-23 -8 -53.5 -2t-48.5 22q-5 4 -7.5 8t-3.5 8t-0.5 8.5t2.5 8.5t5 7.5t6.5 7t7 6.5t8 5.5t8.5 4.5t8 3q34 12 84 10q57 -8 107 -35.5t86 -71.5t53 -98l4 -13q0 -2 1.5 -2.5
t3.5 -0.5l14 2q3 0 5.5 0.5t4.5 0.5q29 0 50 -20.5t21 -49.5q0 -19 -9.5 -35t-25.5 -25.5t-36 -9.5zM323 371.5q0 -11.5 8 -19.5t20 -8q7 0 13.5 3.5t10.5 10t4 14.5q0 11 -8.5 19.5t-20 8.5t-19.5 -8.5t-8 -20zM637 372q0 -3 0.5 -6t1.5 -5.5t3 -4.5t3.5 -4t4 -3.5t5 -2.5
t5 -1.5t5.5 -0.5q12 0 20 8t8 20q0 2 -0.5 4.5t-1.5 5t-2 4.5t-2.5 4t-3.5 3.5t-4 2.5l-4 2q-2 1 -4.5 1.5t-5.5 0.5q-7 0 -13.5 -4t-10.5 -10.5t-4 -13.5z" />
    <glyph glyph-name="uniE616" unicode="&#xe616;" 
d="M277 519h133v-44h-133v44zM321 475h133v-45h-133v45zM365 430h134v-44h-134v44zM365 297h134v-44h-134v44zM321 253h133v-45h-133v45zM277 208h133v-44h-133v44zM543 297h-134v89h134v-89zM543 519h133v-44h-133v44zM587 475h134v-45h-134v45zM632 430h133v-44h-133v44z
M632 297h133v-44h-133v44zM587 253h134v-45h-134v45zM543 208h133v-44h-133v44zM809 297h-133v89h133v-89z" />
    <glyph glyph-name="uniE617" unicode="&#xe617;" 
d="M384 787h-259q-45 0 -77.5 -32t-32.5 -77v-739q0 -45 32.5 -77t77.5 -32h259q46 0 78 32t32 77v739q0 22 -8.5 42.5t-23.5 35t-35 23t-43 8.5zM434 -61q0 -13 -6.5 -24.5t-18 -18t-25.5 -6.5h-259q-21 0 -35.5 14.5t-14.5 34.5v739q0 20 14.5 35t35.5 15h259
q14 0 25.5 -7t18 -18.5t6.5 -24.5v-739zM903 787h-259q-12 0 -22.5 -2t-20.5 -6t-19 -10t-16 -13.5t-13 -16.5t-10.5 -18.5t-6.5 -20.5t-2 -22v-739q0 -17 5.5 -34t15.5 -30.5t23.5 -23.5t30.5 -15.5t35 -5.5h259q22 0 42.5 8.5t35 23.5t23.5 35t9 42v739q0 18 -5.5 34.5
t-16 30t-24 23.5t-30 15.5t-34.5 5.5zM953 -61q0 -20 -14.5 -34.5t-35.5 -14.5h-259q-8 0 -16 2.5t-14 7t-10.5 10.5t-7 13.5t-2.5 15.5v330h359v-330zM953 329h-359v349q0 4 0.5 8t1.5 8l4 6q1 4 4 7l4 6q3 3 6 5t6.5 4t7.5 3l8 2q4 1 8 1h259q21 0 35.5 -15t14.5 -35v-349
zM115 688h279v-60h-279v60zM115 588h279v-60h-279v60zM115 488h279v-60h-279v60zM675 438q-7 0 -13.5 -2.5t-11 -7.5t-7.5 -11.5t-3 -13.5q0 -14 10.5 -24.5t24.5 -10.5q10 0 18 5t12.5 13t4.5 17q0 15 -10 25t-25 10zM675.5 149q9.5 0 17.5 4.5t12.5 12.5t4.5 18
q0 14 -10 24.5t-24.5 10.5t-25 -10.5t-10.5 -24.5q0 -10 5 -18t13 -12.5t17.5 -4.5z" />
    <glyph glyph-name="uniE618" unicode="&#xe618;" 
d="M8 368v-176q0 -36 7.5 -68t21 -57t30 -46.5t37 -38t39.5 -29.5t40 -22.5t35.5 -15t28.5 -9.5v-71h533v71q16 5 33 11.5t41.5 19t46 28.5t44 39.5t38 51.5t26 66t10.5 81v165h-1011zM964 203q0 -42 -12 -78.5t-29.5 -61t-41.5 -44.5t-44.5 -31t-43 -19.5t-31.5 -11
t-15 -3.5l-22 -4v-60h-423v60l-23 4q-71 14 -131 62q-85 69 -85 176v29h901v-18zM964 258h-901v55h901v-55zM430 699h570v-55h-570v55zM26 699h55v-55h-55v55zM26 589h55v-55h-55v55zM430 589h570v-55h-570v55zM92 392q38 8 58 33.5t23 49.5v207q0 16 10.5 27t19.5 14.5
t13 3.5v55q-31 0 -64.5 -26.5t-33.5 -73.5v-201q-6 -28 -38 -35zM202 392q27 6 46 22t26 31t9 30v207q0 16 10.5 27t19.5 14.5t14 3.5l-1 55q-18 0 -39.5 -10t-40 -33.5t-18.5 -56.5v-201q-5 -28 -38 -35zM312 392q39 8 59 33.5t23 49.5v207q0 16 10 27t19 14.5t14 3.5v55
q-32 0 -65 -26.5t-33 -73.5v-201q-6 -28 -38 -35z" />
    <glyph glyph-name="uniE619" unicode="&#xe619;" 
d="M751 29h-496v684h496v-684zM306 80h394v581h-394v-581zM548 -56q0 -7 -2 -13.5t-6 -11.5t-9 -9t-11.5 -6t-13.5 -2q-17 0 -29.5 12.5t-12.5 29.5q0 11 6 21t15.5 15.5t20.5 5.5q18 0 30 -12.5t12 -29.5zM749 -194h-492q-12 0 -23.5 3.5t-21 9t-17.5 13.5t-13.5 17.5
t-8.5 21t-3 22.5v818q0 36 25.5 61.5t61.5 25.5h492q24 0 44 -11.5t32 -32t12 -43.5v-818q0 -36 -26 -61.5t-62 -25.5zM257 747q-5 0 -9.5 -1.5t-8.5 -4t-7.5 -5.5t-6 -7t-3.5 -8.5t-1 -9.5v-818q0 -14 10.5 -24.5t25.5 -10.5h492q15 0 25.5 10.5t10.5 24.5v818q0 25 -23 33
q-6 3 -13 3h-492z" />
    <glyph glyph-name="uniE61A" unicode="&#xe61a;" 
d="M321 432q0 -24 -16.5 -40.5t-39.5 -16.5q-16 0 -29 7.5t-20.5 20.5t-7.5 29q0 23 16.5 39.5t40.5 16.5q15 0 28 -7.5t20.5 -20.5t7.5 -28zM321 432q0 -24 -16.5 -40.5t-39.5 -16.5q-16 0 -29 7.5t-20.5 20.5t-7.5 29q0 23 16.5 39.5t40.5 16.5q15 0 28 -7.5t20.5 -20.5
t7.5 -28zM819 432q0 -24 -17 -40.5t-40 -16.5t-39.5 16.5t-16.5 40t16.5 40t39.5 16.5q15 0 28 -7.5t21 -20.5t8 -28zM882 -204h-746q-47 0 -80.5 33.5t-33.5 80.5v580q0 31 15 57.5t41.5 41.5t57.5 15h746q31 0 57 -15t41.5 -41.5t15.5 -57.5v-580q0 -47 -33.5 -80.5
t-80.5 -33.5zM136 542q-22 0 -37 -15t-15 -37v-580q0 -14 7 -26t19 -19t26 -7h746q21 0 36.5 15t15.5 37v580q0 22 -15.5 37t-36.5 15h-746zM789 438h-63v259q0 11 -4 20.5t-11 16.5t-16.5 11t-19.5 4h-332q-21 0 -36.5 -15t-15.5 -37v-259h-62v259q0 47 33.5 80.5
t80.5 33.5h332q31 0 57 -15t41.5 -41.5t15.5 -57.5v-259z" />
    <glyph glyph-name="uniE61B" unicode="&#xe61b;" 
d="M661 302l65 242l-119 112l-98 -73l-100 75l-118 -115l73 -241l-350 -284l143 -145l124 107l109 -105l122 106l115 -107l116 109l113 -110l156 145zM413 596l95 -72l96 71l70 -66l-58 -212h-208l-64 213zM744 48l-117 -110l-114 106l-121 -105l-109 105l-124 -107l-75 78
l315 255h227l314 -255l-83 -77zM437 683q9 0 15.5 6.5t6.5 15.5t-6.5 15.5t-15.5 6.5t-15 -6.5t-6 -15.5t6 -15.5t15 -6.5zM505 683q6 0 11 3t8 8t3 11q0 4 -1 7t-3 6t-5 5t-6 3t-7 1q-6 0 -11 -3t-8 -8t-3 -11q0 -9 6.5 -15.5t15.5 -6.5zM573 683q9 0 15 6.5t6 15.5
t-6 15.5t-15 6.5t-15.5 -6.5t-6.5 -15.5t6.5 -15.5t15.5 -6.5z" />
    <glyph glyph-name="uniE61C" unicode="&#xe61c;" horiz-adv-x="1036" 
d="M435 1q-20 0 -31 5t-17 17q-6 1 -16 -1q-15 -21 -48 -21h-18q-8 1 -14 1q-36 1 -46 28h-14q-9 -8 -25 -13t-42 -5q-39 0 -57 20q-4 6 -7 12q-8 1 -15 2t-12 2.5t-9 3t-7 2.5q-19 2 -27 26t-10 65q-2 28 3.5 50.5t15.5 38.5t24.5 27t30.5 17t34 8q11 1 24 2t28 1
q30 0 60 -3q46 5 111 47t114 99t50 99q0 27 8 47t18.5 30.5t24 16.5t22 7.5t17.5 1.5q28 0 51 -11l3 -2q63 -31 120 -31q30 0 60 8q35 10 63 10q27 0 44 -8t27 -20q19 -22 15 -52q-4 -25 0 -55q31 -60 38 -160v-7q0 -2 0.5 -5.5t0.5 -5.5t1 -4q8 -26 7 -75t-6 -70
q-5 -22 -6.5 -37.5t-1.5 -35.5q0 -23 -15 -36t-35 -13h-1h-16q-17 1 -42 1h-51q-26 0 -48 0.5t-29 0.5q-42 0 -52 35l-1 5l-1 55q-1 0 -3 0.5t-4.5 1t-5.5 1.5q-16 2 -39.5 -12t-43.5 -31q-26 -46 -120 -53q-4 -9 -10 -14.5t-16 -8t-17 -3.5t-22 -1h-7h-7zM424 44q3 -1 7 -1
h10h7q25 1 28 3q1 1 1.5 3t1.5 4l3 16l17 1q16 0 35.5 3t39 11t24.5 19l2 4l3 3q9 8 23.5 19t44 25.5t52.5 11.5q36 -5 47 -26q6 -12 3 -24l1 -45q3 -3 10 -3h29h48q26 0 51 -0.5t42 -0.5h17q5 0 6 1.5t1 4.5q0 40 10 82q4 19 4.5 62.5t-2.5 54.5q-3 5 -4 12.5t-3 25.5
q-6 93 -34 146l-1 3l-1 3q-7 36 -1 73v5q0 2 -1.5 6t-3.5 7q-21 24 -91 4q-35 -10 -71 -10q-68 0 -140 36l-2 2q-14 7 -32 7q-7 0 -12.5 -1.5t-14.5 -6.5t-14.5 -19t-6.5 -35q-1 -53 -55.5 -120t-128.5 -114t-131 -52h-2h-1q-29 2 -59 2h-18q-8 0 -15.5 -0.5t-14.5 -1.5
q-12 -2 -23.5 -6.5t-23.5 -14t-18.5 -29t-4.5 -46.5q2 -36 7 -51l5 -4v0q15 -7 44 -8l26 -1l-6 -23q0 -1 3 -2.5t9 -2.5t13 -1q12 0 20.5 1t12 2.5t6.5 2.5l3 10l14 1h13q16 0 27 -2q17 -3 24 -23l1 -1l8 -1q6 -1 15 -1h1q11 -1 15 -1q6 0 8.5 0.5t3.5 2.5l3 4l4 10l11 3
q15 3 29 3q20 0 31 -9q7 -5 11 -13zM574 347.5q0 -11.5 -8 -19.5t-19.5 -8t-19.5 8t-8 20q0 7 3.5 13.5t10 10t13.5 3.5q12 0 20 -8t8 -19.5zM637 432q0 -12 -8 -20t-19.5 -8t-19.5 8t-8 20q0 7 3.5 13.5t10 10t14 3.5t14 -3.5t10 -10t3.5 -13.5zM495 289q0 -11 -8 -19.5
t-20 -8.5q-8 0 -14.5 4t-10 10.5t-3.5 13.5q0 6 2 11t6 9t9 6t11 2t11 -2t9 -6t6 -9t2 -11z" />
    <glyph glyph-name="uniE61D" unicode="&#xe61d;" 
d="M682 451v135l-2 5q-6 17 -21 43.5t-38 59.5t-48.5 60t-56 43.5t-57.5 11.5q-15 -3 -27.5 -12t-21 -21t-14.5 -29t-9.5 -34t-5.5 -38t-3 -38t-1 -37v-149q-25 -13 -41 -38t-16 -55v-457q0 -28 14 -52t38.5 -38.5t52.5 -14.5h209q44 0 74.5 31t30.5 74v457q0 10 -2 20
t-5.5 18.5t-8.5 17t-11 15t-14 12.5t-16 10zM425 406h209q12 0 22 -5t16.5 -14t8.5 -19h-303q4 16 17 27t30 11zM469 753q27 5 79 -56.5t77 -120.5v-113h-191v137q0 53 6.5 89.5t14 49t14.5 14.5zM682 -99q0 -20 -14 -33.5t-34 -13.5h-209q-20 0 -34 13.5t-14 33.5v429h305
v-429z" />
    <glyph glyph-name="uniE61E" unicode="&#xe61e;" 
d="M354 377h343q23 0 42 11.5t30 30.5t11 42v267q0 23 -11 42.5t-30 30.5t-42 11h-343q-14 0 -26.5 -4t-23 -12t-18 -18t-12 -23t-4.5 -27v-267q0 -35 24.5 -59.5t59.5 -24.5zM327 728q0 8 3.5 14t9.5 9.5t14 3.5h343q11 0 19 -7.5t8 -19.5v-267q0 -7 -3.5 -13.5t-10 -10
t-13.5 -3.5h-343q-5 0 -9 1.5t-7 4t-5.5 5.5t-4 7.5t-1.5 8.5v267zM927 491h-55q-12 0 -23.5 -3.5t-21.5 -9t-18.5 -14t-15 -18t-10 -20.5t-3.5 -22v-50q-14 4 -26 4h-457q-13 0 -27 -4v50q0 36 -23.5 61.5t-57.5 25.5h-55q-35 0 -63 -26.5t-28 -60.5v-459q0 -34 28 -65.5
t63 -31.5h61v-38h75v38h529v-38h76v38h52q34 0 57 30.5t23 66.5v459q0 37 -23 62t-57 25zM270 275q0 11 8 19t19 8h457q11 0 18.5 -8t7.5 -19v-135q0 -6 -2 -11t-5.5 -8.5t-8.5 -5.5t-10 -2h-457q-11 0 -19 8t-8 19v135zM950 -55q0 -14 -7.5 -27t-15.5 -13h-793
q-10 0 -22 14t-12 26v459q0 11 11 20.5t23 9.5h55q11 0 17.5 -9t6.5 -21v-348h84h457h83v84v135v129q0 10 11.5 20t23.5 10h55q11 0 17 -9t6 -21v-459z" />
    <glyph glyph-name="uniE61F" unicode="&#xe61f;" 
d="M541 385q42 0 71.5 29.5t29.5 71.5q0 27 -13.5 50t-36.5 36.5t-51 13.5q-41 0 -70.5 -29.5t-29.5 -70.5q0 -14 3.5 -27t10 -24t16 -20.5t20.5 -16t24 -10t26 -3.5zM541 528q9 0 17 -3t13.5 -9t9 -14t3.5 -16q0 -18 -12.5 -30.5t-30.5 -12.5q-11 0 -21 6t-15.5 15.5
t-5.5 21.5q0 17 12.5 29.5t29.5 12.5zM853 451q1 17 1 27q0 90 -43 167t-117.5 122t-162 45t-162 -45t-117.5 -122t-43 -167q0 -6 0.5 -12t0.5 -15h-81v-640h796v640h-72zM532 754q21 0 42.5 -3.5t41 -10.5t37.5 -17t34.5 -22.5t31 -27.5t26.5 -32t21.5 -36.5t16 -39.5
t10 -42.5t3.5 -44.5q0 -17 -4 -41l-1 -5h-1q-2 -6 -4 -14q-9 -31 -15 -44h-478q-7 14 -17 45q-2 9 -3 12l-2 6q-4 24 -4 41q0 75 35.5 138.5t96.5 100.5t133 37zM866 -131h-679v369h679v58h-679v97h35q12 -40 30 -65v-1l9 -11h541l9 11q6 9 11.5 20.5t9.5 22.5t8 23h26v-524
z" />
    <glyph glyph-name="uniE620" unicode="&#xe620;" 
d="M881 292l-483 520h-223l483 -520l-483 -484h223z" />
    <glyph glyph-name="uniE621" unicode="&#xe621;" 
d="M658 -192h223l-483 484l483 520h-223l-483 -520z" />
    <glyph glyph-name="uniE622" unicode="&#xe622;" horiz-adv-x="1031" 
d="M999 769h-945q-5 0 -9.5 -1.5t-8.5 -4.5t-7 -7t-4.5 -8.5t-1.5 -9.5v-294q0 -13 9 -22.5t22 -9.5h116v-514q0 -8 4 -15.5t11.5 -11.5t15.5 -4h651q9 0 16 4t11 11.5t4 15.5v514h116q13 0 22 9.5t9 22.5v294q0 13 -9 22t-22 9zM683 706q-7 -47 -36 -77q-19 -20 -47.5 -30
t-65.5 -10q-40 0 -70.5 11.5t-48 31t-26.5 37t-13 37.5h307zM233 -70v42h588v-42h-588zM967 475h-115q-9 0 -16 -4t-11 -11.5t-4 -15.5v-430h-588v430q0 13 -9.5 22t-22.5 9h-115v231h247q4 -19 10.5 -37.5t22 -41.5t36 -40t55 -28.5t77.5 -11.5q31 0 57 6t48 18t39 29
q39 42 48 106h241v-231z" />
    <glyph glyph-name="uniE623" unicode="&#xe623;" 
d="M293.5 124q-22.5 0 -38.5 -16t-16 -38.5t16 -39t38.5 -16.5t38.5 16.5t16 39t-16 38.5t-38.5 16zM629 150q-31 0 -53 -22t-22 -53.5t22 -53.5t53 -22t53.5 22t22.5 53.5t-22.5 53.5t-53.5 22zM964 667v13q0 16 -12 27.5t-29 11.5h-161h-6q-8 -1 -15 -4t-12 -9t-8 -14
l-46 -131h-576q-11 0 -19.5 -5.5t-14 -14t-5.5 -19.5v-12q0 -16 11.5 -27t27.5 -11h544l-19 -54h-484q-16 0 -27.5 -11.5t-11.5 -27.5v-12q0 -16 11.5 -27.5t27.5 -11.5h453l-20 -55h-366q-17 0 -28.5 -11.5t-11.5 -27.5v-12q0 -16 11.5 -27t28.5 -11h396h3q13 -1 24.5 6.5
t15.5 19.5l147 418h130q11 0 20.5 5.5t15 14t5.5 19.5v0z" />
    <glyph glyph-name="uniE624" unicode="&#xe624;" 
d="M794 533q-4 9 -13 13t-18 0t-13 -13t-0.5 -18t6.5 -18t5.5 -17.5t4.5 -17.5t3.5 -17.5t2 -17t0.5 -17.5q0 -66 -77 -197q-27 -45 -61 -96q-44 -65 -97 -132q-7 -9 -13.5 -17t-12.5 -16q-13 16 -26 33q-52 67 -97 132q-34 51 -61 96q-37 64 -57 114t-20 83q0 53 21 101.5
t56 83.5t83 55.5t101 20.5q74 0 139 -41q8 -6 18 -3.5t15 10.5q3 6 3.5 12t-2.5 11.5t-9 9.5q-12 8 -25 14.5t-26.5 12t-27.5 9.5t-28 7t-28.5 4t-28.5 1q-127 0 -217.5 -90.5t-90.5 -217.5q0 -79 83 -221q9 -15 20 -31l20 -34q11 -16 23 -34q23 -33 48 -67t51 -67
q18 -23 32 -41q3 -4 5.5 -7t4 -5t3.5 -3q4 -6 11 -8t13.5 0t11.5 8q7 8 13 15q15 18 32 41q54 69 99 134q36 53 63 99q83 142 83 221q0 59 -25 123zM369 401q0 -56 39.5 -95.5t95.5 -39.5q37 0 68 18t49 49t18 68q0 56 -39.5 95.5t-95.5 39.5q-37 0 -68 -18t-49 -49.5
t-18 -67.5zM592 401q0 -18 -7 -34.5t-19 -28t-28 -18.5t-34 -7q-36 0 -62 25.5t-26 62t26 62.5t62 26t62 -26t26 -62z" />
    <glyph glyph-name="uniE625" unicode="&#xe625;" 
d="M1013 479q-28 39 -59.5 83.5t-69 98t-59.5 84.5q-9 15 -26 15h-303h-19h-276q-13 0 -21 -9l-1 -1q-2 -2 -4 -5q-26 -42 -80.5 -131t-83.5 -135q-11 -18 3 -35q1 0 1.5 -0.5t0.5 -1.5q78 -99 232.5 -297t231.5 -296q10 -13 23 -11q5 0 10 2.5t10 8.5q59 73 153.5 188
t177.5 217t154 188l2 4q14 17 3 33zM929 494h-184q8 22 20 54.5t23 62.5t20 55q20 -29 60.5 -86.5t60.5 -85.5zM501 686q20 -29 41 -59.5t50 -73t41 -59.5h-267q107 151 135 192zM659 434q-37 -101 -54.5 -149t-48 -130.5t-54.5 -148.5q-95 267 -155 428h312zM690 517
q-26 37 -126 183h193q-12 -33 -34.5 -94.5t-32.5 -88.5zM314 523q-35 92 -69 177h193q-65 -92 -124 -177zM195 664q32 -81 66 -170h-170q49 79 104 170zM284 434q62 -166 159 -442q-193 248 -345 442h186zM723 434h201q-88 -108 -365 -446q13 35 28 75.5t26 71.5t28.5 77.5
t26.5 71t28 77.5t27 73z" />
    <glyph glyph-name="uniE626" unicode="&#xe626;" 
d="M852 201l-174 432q-6 16 -23 16h-295q-18 0 -24 -17l-164 -432q-5 -12 2.5 -23t21.5 -11h633q13 0 21 11t2 24zM233 217l144 380h260l154 -380h-558zM619 -23h-81v127h-51v-127h-81q-11 0 -18.5 -7.5t-7.5 -18.5q0 -7 3.5 -12.5t9.5 -9t13 -3.5h213q3 0 6 0.5t5.5 2
t4.5 3t4 4t3 5t1.5 5t0.5 5.5q0 11 -7.5 18.5t-17.5 7.5z" />
    <glyph glyph-name="uniE627" unicode="&#xe627;" 
d="M668 486l-134 187q-8 10 -21 11h-1h-1q-6 0 -11.5 -3t-9.5 -8l-135 -187q-6 -10 -4.5 -21t10.5 -17.5t20 -5t18 10.5l113 158l113 -157q6 -9 17 -11t20 5q6 4 9 11t2 14t-5 13zM748 -42h1q10 8 10 22v230q-1 6 -3 11t-5.5 8.5t-8.5 6t-11 2.5q-11 0 -19 -8t-7 -19v-194
l-183 60q-11 4 -20.5 -1t-13.5 -16q-1 -5 -0.5 -10.5t3 -10t6.5 -8t9 -5.5l218 -72q6 -2 12 -1t12 4v1zM895 406h-1v1v1q-5 12 -17 16l-220 70q-11 4 -21 -1.5t-13.5 -16t1.5 -20.5t16 -13l184 -59l-114 -156q-3 -4 -4 -9.5t-0.5 -10.5t3.5 -9.5t7 -7.5q6 -4 13.5 -4.5t14 2
t11.5 8.5l135 186q8 10 5 23zM535 60.5q-3 10.5 -13 15.5t-21 1l-183 -60l1 194q0 4 -1.5 8.5t-4 7.5t-5.5 5.5t-7 4t-9 1.5q-11 0 -19 -8.5t-8 -19.5l-1 -230q0 -7 2.5 -12.5t7.5 -9.5q1 0 1 -0.5t1 -0.5v0q11 -7 23 -3l218 72q11 3 16 13.5t2 21zM401 476.5
q-4 10.5 -14 16t-21 1.5l-219 -70q-4 -2 -7.5 -4t-6 -5.5t-3.5 -6.5l-1 -1v-1v0q-1 -3 -1 -5v-5q0 -2 1 -4.5t2 -4.5l2 -4l136 -186q7 -9 18 -10.5t20 4.5q6 4 9 10.5t2 13.5t-5 13l-114 156l185 59q10 3 15.5 13t1.5 20.5z" />
    <glyph glyph-name="uniE628" unicode="&#xe628;" 
d="M530 763q-91 0 -174 -35t-142.5 -95t-95 -142.5t-35.5 -173.5t35.5 -174t95 -142.5t142.5 -95t174 -35.5t173.5 35.5t142.5 95t95.5 142.5t35.5 174q0 170 -114 297q-109 123 -271 145q-31 4 -62 4zM408.5 88q-14.5 0 -24.5 10t-10 24t10 24.5t24 10.5q10 0 18 -5
t12.5 -12.5t4.5 -17.5q0 -14 -10 -24t-24.5 -10zM618.5 78q-19.5 0 -33.5 14t-14 33q0 13 6.5 24t17 17.5t23.5 6.5t24 -6.5t17 -17.5t6 -24q0 -19 -13.5 -33t-33 -14zM828 496q0 -7 -3.5 -12.5t-9.5 -8.5t-13 -3h-81l-93 -262q-2 -8 -9 -12.5t-15 -3.5h-2h-248q-5 0 -9.5 2
t-8 5t-5.5 7.5t-2 9.5v7q0 10 7.5 17.5t17.5 7.5h229l12 34h-283q-4 0 -8.5 2t-8 5t-5.5 7.5t-2 9.5v8q0 10 7 17t17 7h303l12 34h-340q-5 0 -9.5 2t-8 5t-5 7.5t-1.5 9.5v7q0 10 7 17.5t17 7.5h360l29 82q5 15 21 16h4h101q7 0 13 -3t9.5 -8.5t3.5 -12.5v-8z" />
    <glyph glyph-name="uniE629" unicode="&#xe629;" 
d="M924 476q-34 80 -96 142t-143 96q-13 6 -27.5 11t-28.5 9t-28.5 6.5t-29.5 4.5t-30 3t-30 1q-91 0 -174 -35q-40 -17 -76 -41t-67 -55q-15 -15 -28.5 -32t-26 -34.5t-22.5 -36.5t-19 -39q-17 -42 -26 -85.5t-9 -88.5q0 -91 35 -175q34 -80 96 -142t143 -96q41 -17 85 -26
t89 -9q91 0 174 35q81 34 143 96t96 142q35 84 35 175q0 45 -9 88.5t-26 85.5zM895 302q0 -57 -16 -111q-25 24 -44 48.5t-33 49t-23 49.5q-2 7 -3.5 13t-3.5 13q62 -22 114 -58q3 -1 5 -2zM768 423q2 18 7 35q4 10 8.5 19.5t9.5 16.5t10.5 12.5t11 9.5t11.5 6
q48 -70 63 -152q-56 33 -121 53zM790 566q-7 -4 -13.5 -9.5t-12.5 -11.5q-28 -28 -41 -70q-2 -4 -3 -8.5t-2 -9.5l-2 -10q-1 -5 -2 -11q-3 1 -5.5 1.5t-5.5 0.5q-16 4 -33.5 6t-35.5 3.5t-37 2.5q-10 96 -36 165q-15 42 -36 71q77 -3 145.5 -34.5t119.5 -85.5zM453 681
q5 -3 9.5 -7t8.5 -9t8 -10.5t8 -12t8 -14t7.5 -16t6.5 -16.5q23 -61 33 -146q-8 -1 -15 -1t-15 -1h-14l-16 -2l-16 -2q-8 -1 -15.5 -2t-15.5 -2l-16 -2q-8 -1 -15.5 -2.5t-15.5 -2.5q-2 8 -4 15q-24 65 -75 100q-15 11 -32 18t-35 10q89 87 211 105zM197 523q29 3 55.5 -7.5
t47 -32.5t32.5 -54q0 -2 0.5 -3.5t1.5 -3.5q-89 -20 -202 -59q14 87 65 160zM127 304q3 0 6 1q117 41 210 62q2 -68 -38.5 -137t-125.5 -121q-52 89 -52 193v1v1zM210 63q101 63 147 147t41 168q78 15 148 17q6 -117 -14 -242.5t-66 -232.5q-51 6 -98.5 25t-87 49t-70.5 69z
M525 -82q63 157 75 348q4 66 1 129q29 -1 57.5 -4.5t55.5 -10.5q3 -29 13 -60q32 -95 128 -181l1 -1l2 -2q-46 -95 -135 -155t-198 -63z" />
    <glyph glyph-name="uniE62B" unicode="&#xe62b;" horiz-adv-x="1420" 
d="M1719 374v-31v31zM940 355q-23 33 -54.5 59t-62.5 42t-66.5 27.5t-63.5 16.5t-56 7q-10 12 -42.5 39.5t-60.5 48.5l-27 22q-25 19 -40 19q-5 0 -8 -2t-4.5 -5t-2.5 -5.5t-1 -4.5v-2v-137q-53 -28 -89 -54t-49.5 -41.5t-26 -30t-22.5 -20.5q-7 -5 -15 -5q-11 0 -24 9
t-24 20t-29.5 30t-32.5 32q-36 31 -56 31q-22 0 -19 -31q3 -28 39 -106q2 -4 1.5 -14t-5.5 -21q-32 -71 -35 -98q0 -7 0.5 -12.5t3 -10t6 -6.5t9.5 -2q20 0 56 31q15 13 40.5 39.5t40.5 38.5t29 12q8 0 15 -4q10 -7 22.5 -21.5t26 -30t49.5 -41.5t89 -54v-136q0 -20 16 -20
q15 0 40 20q107 83 130 109q36 3 72.5 11t79.5 24.5t83 46.5t68 70q20 29 20 55q0 27 -20 55zM159 243q-7 -6 -10.5 -10t-8.5 -9l-11 -11q-5 -5 -11 -9q-4 -4 -8 -7.5t-7.5 -5.5t-6.5 -4l4 13q3 8 6.5 17.5t9 22t11.5 27.5h1q7 17 7.5 33t-3.5 23v2l-1 2q-27 58 -35 87
q2 -1 3.5 -2t3 -2.5l3.5 -3.5l4 -2l4 -4q2 -1 4 -3q15 -13 41 -40q17 -17 26 -25.5t22.5 -18.5t26.5 -13q-18 -4 -34 -17.5t-41 -39.5zM929 300q0 -5 -2 -11t-5 -13t-7 -13q-24 -34 -58.5 -60.5t-78.5 -45.5q-66 -27 -143 -33l-13 -1l-8 -9q-21 -25 -126 -106q-3 -3 -7 -5
v117v19l-16 9q-34 18 -60.5 34.5t-46.5 33.5q-21 18 -44 44q-19 23 -33 32q-8 6 -17 8q9 3 17 8q7 4 13.5 10t10 10t9.5 12q23 27 44 45q10 8 22 16t25 16.5t28 17.5t32 18l16 9v18v117q4 -2 7 -4q16 -13 34.5 -28t37.5 -30.5t33.5 -28.5t20.5 -19l8 -10l13 -1
q28 -2 58.5 -8t72.5 -20t81.5 -42.5t67.5 -68.5v0q14 -20 14 -37v0zM800 359q-16 0 -29 -7.5t-21 -21.5t-8 -30q0 -24 17 -41.5t41 -17.5t41 17.5t17 41.5q0 16 -8 30t-21 21.5t-29 7.5zM800 272q-7 0 -13.5 4t-10 10.5t-3.5 14t3.5 14t10 10.5t13.5 4q4 0 7.5 -1t6.5 -3
t5.5 -4.5t4 -6t2.5 -7t1 -7.5q0 -11 -8 -19.5t-19 -8.5zM1404 292z" />
    <glyph glyph-name="uniE62C" unicode="&#xe62c;" 
d="M283 96l177 552l-287 -507zM533 747l-6 7q-1 2 -3 2q-3 0 -5 -2.5t-3 -4.5v-3l-199 -668q4 -3 11 -8.5t32 -19t52.5 -23.5t71 -17.5t88.5 -6.5q48 1 92.5 13.5t74.5 30t52.5 35t33.5 29.5l10 12zM511 350q-1 -14 -8 -20t-14.5 -1t-10.5 16q-5 23 13 59q7 12 14 -13t6 -41
zM529 555q-3 4 -1.5 16t6.5 24q4 9 11 -11q5 -17 4 -25q0 -3 -3 -6t-7.5 -3t-9.5 5zM573 445q0 -8 -7.5 -13t-17.5 2q-12 10 3 57q4 14 14 -15q9 -22 8 -31zM619 362q-10 11 -3 49q2 15 17 -15q9 -17 9 -27q1 -7 -7 -11t-16 4zM308 -99q89 -39 186 -44t182 25q89 30 144 80
t61 77l-17 33q-4 -6 -12 -14.5t-36 -31.5t-59 -40.5t-80 -32.5t-100 -17q-54 -1 -105 8t-86 22t-61.5 27.5t-39.5 23.5t-13 10l-133 62q0 -22 22 -61q46 -81 147 -127z" />
    <glyph glyph-name="uniE62D" unicode="&#xe62d;" 
d="M791 -148h-558q-34 0 -58 24.5t-24 58.5v386h-72q-6 0 -11.5 2.5t-9.5 7t-7 9.5q-3 9 -0.5 18t9.5 15l411 356q9 8 21 12t24 4q8 0 16 -2t15 -5.5t14 -8.5l410 -356q16 -13 9 -33q-3 -8 -10.5 -13.5t-17.5 -5.5h-79v-386q0 -34 -24 -58.5t-58 -24.5zM110 362h41
q17 0 29 -12t12 -29v-386q0 -17 12 -29.5t29 -12.5h558q17 0 29 12.5t12 29.5v386q0 17 12 29t29 12h49l-388 336q-8 6 -18 6q-5 0 -10 -1.5t-9 -4.5zM511 379q-4 0 -8 2t-7 4.5t-4.5 6.5t-1.5 8v30q0 8 6 14t15 6q5 0 10 -2.5t7.5 -7.5t2.5 -10v-30q0 -3 -0.5 -5.5t-2 -5
t-3.5 -3.5l-4 -4q-2 -1 -5 -2t-5 -1zM721 338q-4 0 -8 1.5t-6.5 4t-4.5 6.5t-2 8q0 5 -2.5 9.5t-6.5 7t-10 2.5h-338q-8 0 -13.5 -5.5t-5.5 -13.5q0 -4 -1.5 -8t-4.5 -6.5t-6.5 -4t-7.5 -1.5q-9 0 -15 6t-6 14q0 25 17.5 42.5t42.5 17.5h338q25 0 42.5 -17.5t17.5 -42.5
q0 -8 -6 -14t-14 -6zM469 -31q-5 0 -10 2.5t-7.5 7.5t-2.5 10.5t2.5 10t7.5 7.5t10 3q18 0 30.5 12.5t12.5 30.5v116q0 22 -15.5 38t-38.5 16h-2q-9 0 -15 6t-6 14q0 6 3 10.5t7.5 7.5t10.5 3h2q26 0 48 -13t34.5 -35t12.5 -47v-116q0 -35 -24.5 -59.5t-59.5 -24.5zM710 278
h-396q-8 0 -14 6t-6 14q0 6 2.5 10.5t7.5 7.5t10 3h396q4 0 8 -1.5t6.5 -4.5t4.5 -7t2 -8q0 -8 -6 -14t-15 -6zM314 183q-9 0 -15 6t-6 14.5t6 14.5t15 6q49 0 93 23q21 11 39 26.5t32 34.5q5 6 13.5 7.5t15.5 -3.5q3 -2 5.5 -6t3 -7.5t-0.5 -7.5t-4 -8q-34 -46 -85 -73
q-53 -27 -112 -27zM314 98q-9 0 -15 6t-6 14q0 4 1 7t3 5.5t4.5 4.5t5.5 3t7 1q18 0 35.5 2.5t34 8t32.5 14.5q23 11 43 28t35 38q5 7 13.5 8.5t15 -3.5t8 -13.5t-3.5 -15.5q-37 -50 -92 -79q-57 -29 -121 -29zM314 14q-9 0 -15 6t-6 14.5t6 14.5t15 6q19 0 38.5 3t38 9
t35.5 15q51 27 86 73q5 7 13 8.5t15 -3.5t8.5 -13.5t-3.5 -15.5q-40 -54 -100 -85q-30 -16 -63.5 -24t-67.5 -8zM592 130q-11 0 -17 10q-5 7 -3 15t9 13l116 73q7 4 15 2t12.5 -9t3 -15.5t-8.5 -12.5l-116 -73q-5 -3 -11 -3zM717 -6q-8 0 -14 6l-191 190q-4 4 -5 9t0 10.5
t5 9.5q6 6 14.5 6t14.5 -6l191 -191q5 -6 5 -14t-5 -14q-7 -6 -15 -6z" />
    <glyph glyph-name="uniE62E" unicode="&#xe62e;" 
d="M267 266q-83 0 -142.5 59.5t-59.5 143t59.5 143t142.5 59.5l525 -58q5 -1 8.5 -3.5t6 -6.5t2.5 -8v-253q0 -6 -5 -11.5t-12 -6.5l-523 -58h-2zM265 635q-33 0 -63 -13.5t-52 -35.5t-35.5 -53t-13.5 -64q0 -69 48.5 -117.5t116.5 -48.5l506 56v219zM924 529h-73
q-7 0 -12.5 5.5t-5.5 13t5.5 12.5t12.5 5h73q7 0 12.5 -5t5.5 -13q0 -5 -2.5 -9t-6.5 -6.5t-9 -2.5zM941 447h-73q-7 0 -12.5 5.5t-5.5 12.5q0 5 2.5 9.5t6.5 7t9 2.5h73q4 0 7 -1.5t5.5 -4t4 -6t1.5 -7.5q0 -7 -5.5 -12.5t-12.5 -5.5zM924 365h-73q-7 0 -12.5 5.5
t-5.5 13.5q0 3 1.5 6.5t4 6t5.5 4t7 1.5h73q5 0 9 -2.5t6.5 -6.5t2.5 -9q0 -8 -5.5 -13.5t-12.5 -5.5zM334 -95q-23 0 -41.5 11.5t-29.5 31.5t-11 43v293q0 2 0.5 4.5t1.5 4.5t3 3l4 4q2 1 4 1.5t5 0.5q7 0 12.5 -5.5t5.5 -12.5v-293q0 -21 13.5 -35.5t32 -14.5t32 14.5
t13.5 35.5v308q0 7 5.5 12.5t13 5.5t12.5 -5.5t5 -12.5v-308q0 -36 -24 -61t-57 -25zM353 154q0 -2 -0.5 -4.5t-1.5 -4t-2 -3.5t-3 -3.5t-4 -2.5h-4q-2 -1 -4 -1q-4 0 -8 1.5t-6.5 4t-4 6t-1.5 7.5v62q0 4 1.5 7.5t4 6t6.5 4t8 1.5q19 0 19 -19v-62z" />
    <glyph glyph-name="uniE62F" unicode="&#xe62f;" 
d="M1017 286q0 104 -40 198t-108.5 162.5t-162.5 108.5t-198 40t-198 -40t-162.5 -108.5t-108.5 -162.5t-40 -198t40 -198t108.5 -162.5t162.5 -108.5t198 -40q169 0 307 104q5 6 5 14q0 10 -6.5 16.5t-15.5 6.5q-10 0 -16 -7h-1q-29 -21 -60.5 -37.5t-66 -28.5t-71.5 -18
t-75 -6q-93 0 -178.5 36.5t-147.5 98.5t-98.5 147.5t-36.5 178.5q0 76 23.5 146t66 127t99.5 99.5t127 66t145 23.5q63 0 123 -16.5t110.5 -46.5t93 -72.5t72.5 -93t46.5 -110.5t16.5 -123q0 -116 -53 -215v-1l-1 -6q0 -2 0.5 -4.5t1.5 -4.5t2 -3.5t2.5 -3t3.5 -3t4 -1.5
l4 -2h5q15 0 21 14q57 112 57 234v0zM201 114q-5 0 -9.5 2t-8 5t-5.5 8t-2 10v293q0 10 7.5 17.5t18 7.5t18 -7.5t7.5 -17.5v-293q0 -10 -7.5 -17.5t-18.5 -7.5zM385 114q-10 0 -17.5 7.5t-7.5 17.5v293q0 10 7.5 17.5t18 7.5t18 -7.5t7.5 -17.5v-293q0 -5 -2 -10t-5.5 -8
t-8.5 -5t-10 -2zM385 260h-184q-10 0 -17.5 7.5t-7.5 17.5q0 6 2 10.5t5.5 8t8 5.5t9.5 2h184q7 0 13 -3.5t9.5 -9.5t3.5 -13q0 -2 -1 -4v-4q-1 -2 -2 -3l-2 -4l-2.5 -2.5t-3 -2.5t-3.5 -2t-4 -1l-4 -2h-4zM752 114q-7 0 -13 3t-9 9t-3 13v293q0 7 3 12.5t9 9t13 3.5
t13 -3.5t9.5 -9t3.5 -12.5v-293q0 -5 -2 -10t-5.5 -8t-8.5 -5t-10 -2zM844 406h-184q-10 0 -17.5 7.5t-7.5 18t7.5 18t17.5 7.5h184q7 0 13 -3.5t9.5 -9t3.5 -12.5q0 -11 -7.5 -18.5t-18.5 -7.5zM535 114q-42 0 -72 30t-30 72v139q0 42 30 72t72.5 30t72.5 -30t30 -72v-139
q0 -28 -14 -51.5t-37.5 -37t-51.5 -13.5zM535 406q-21 0 -36 -15t-15 -36v-139q0 -21 15 -36t36 -15q11 0 20.5 4t16 11t11 16.5t4.5 19.5v139q0 14 -7 25.5t-19 18.5t-26 7z" />
    <glyph glyph-name="uniE630" unicode="&#xe630;" 
d="M343 14q-37 0 -63.5 -26.5t-26.5 -64.5t26 -64.5t63.5 -26.5t64 26.5t26.5 64.5q0 52 -44 78q-22 13 -46 13zM343 -107q-13 0 -21.5 9t-8.5 21q0 5 1.5 9.5t4 8.5t6.5 6.5t8.5 4t9.5 1.5q6 0 11.5 -2t9.5 -6.5t6.5 -10t2.5 -11.5q0 -8 -4 -15t-11 -11t-15 -4zM944 682
h-745l-6 30q0 13 -9 21.5t-21 8.5h-120q-9 0 -15.5 -4t-11 -11t-4.5 -15q0 -12 9 -21t22 -9h96l114 -577q0 -6 2.5 -11.5t6.5 -9.5t9.5 -6.5t11.5 -2.5h540q13 0 21.5 9t8.5 21q0 8 -4 15t-10.5 11t-15.5 4h-516l-24 122h570q3 0 6 0.5t6 1.5q11 5 16 16q3 6 3 12l87 352
l2 6q1 3 1 6q0 13 -9 22t-21 9zM373 318h-102l-60 303h162v-303zM553 318h-150v303h150v-303zM733 318h-150v303h150v-303zM831 318h-68v303h144zM763 14q-37 0 -63.5 -26.5t-26.5 -64.5t26.5 -64.5t64 -26.5t63.5 26.5t26 64.5q0 52 -43 78q-22 13 -47 13zM763 -107
q-8 0 -15 4t-11 11t-4 15q0 13 9 21.5t21.5 8.5t21 -8.5t8.5 -21t-8.5 -21.5t-21.5 -9z" />
    <glyph glyph-name="uniE632" unicode="&#xe632;" 
d="M512 -147q-91 0 -174 35.5t-142.5 95t-95 142.5t-35.5 174q0 61 16 119t45 107t70 90t90 70t107 45t119 16q91 0 174 -35.5t142.5 -95t95 -142.5t35.5 -174t-35.5 -174t-95 -142.5t-142.5 -95t-174 -35.5zM720 509q-11 11 -24.5 14.5t-27.5 0t-24 -14.5l-133 -133
l-131 132q-8 7 -18 11t-20 4t-20 -4t-18 -11q-10 -11 -13.5 -24.5t0 -27.5t13.5 -24l131 -131l-132 -133q-5 -4 -8 -9.5t-5 -11t-2.5 -11.5t0 -11.5t2.5 -11.5t5 -11t8 -10q15 -15 37.5 -15t37.5 15l133 133l133 -133q10 -10 24 -13.5t27.5 0t24.5 13.5q15 16 15 38t-15 38
l-133 133l133 133q15 15 15 37.5t-15 37.5zM720 509z" />
    <glyph glyph-name="uniE633" unicode="&#xe633;" 
d="M512 471q-70 0 -120.5 -50.5t-50.5 -120.5q0 -28 9 -54t24.5 -47t36.5 -36.5t47 -24.5t54 -9q46 0 85.5 23t62.5 62.5t23 85.5q0 70 -50.5 120.5t-120.5 50.5zM894 343q-15 132 -111 228t-228 111v87h-86v-87q-132 -15 -228 -111t-111 -228h-87v-86h87q15 -132 111 -228
t228 -111v-87h86v87q132 15 228 111t111 228h87v86h-87zM512 1q-60 0 -115.5 24t-95.5 64t-64 95.5t-24 115.5q0 123 88 211t211 88t211 -88t88 -211q0 -124 -90 -212q-88 -86 -209 -87z" />
    <glyph glyph-name="uniE634" unicode="&#xe634;" 
d="M512 747q-91 0 -174 -35.5t-143 -95.5t-95.5 -143t-35.5 -174q0 -73 22.5 -141t64 -123t96.5 -96.5t123.5 -64t141.5 -22.5q91 0 173.5 35.5t142.5 95.5t95.5 142.5t35.5 173.5q0 73 -22.5 141.5t-64 123.5t-96.5 96.5t-123 64t-141 22.5v0zM768 415l-289 -289
q-10 -10 -24 -11.5t-25 5.5q-5 2 -8 6l-167 167q-8 7 -10.5 17.5t0 21t10.5 18.5q12 12 28.5 12t28.5 -12l138 -138l261 261q12 12 29 12t28 -12q8 -8 11 -18.5t0 -21t-11 -18.5v0z" />
    <glyph glyph-name="uniE635" unicode="&#xe635;" 
d="M513 746q93 0 175.5 -35.5t144 -97t97.5 -144t36 -175.5q0 -94 -36 -176.5t-97.5 -144t-144 -97.5t-175.5 -36q-94 0 -176.5 36t-144 97.5t-97.5 144t-36 176.5q0 93 36 175.5t97.5 144t144 97t176.5 35.5zM513 -97q81 0 152 30.5t124.5 84t84 124.5t30.5 152t-30.5 152
t-84 124.5t-124.5 84t-152 30.5q-82 0 -153 -30.5t-124.5 -84t-84 -124.5t-30.5 -152t30.5 -152t84 -124.5t124.5 -84t153 -30.5zM513 622q67 0 125 -25.5t102 -69.5t69.5 -102t25.5 -125t-25.5 -125.5t-69.5 -102.5t-102 -69.5t-125 -25.5t-125.5 25.5t-102.5 69.5
t-69.5 102.5t-25.5 125.5t25.5 125t69.5 102t102.5 69.5t125.5 25.5z" />
    <glyph glyph-name="uniE636" unicode="&#xe636;" 
d="M514 757q-112 0 -207 -55t-150 -150t-55 -207t55 -206.5t150 -150t206.5 -55.5t206.5 55.5t150.5 150t55.5 206.5q0 84 -33 160t-88 131.5t-131.5 88t-159.5 32.5zM514 -18q-99 0 -182.5 48.5t-132 132.5t-48.5 182.5t48.5 182t132 132t182.5 48.5q74 0 141 -28.5
t115.5 -77.5t77.5 -116t29 -141q0 -145 -101 -250q-99 -104 -241 -112q-11 -1 -21 -1zM516 528q-71 0 -121 -50t-50 -121q0 -47 23 -86t62.5 -62t85.5 -23q71 0 121 50t50 121t-50 121t-121 50z" />
    <glyph glyph-name="uniE637" unicode="&#xe637;" 
d="M513 -225q-15 19 -39 50.5t-85.5 121t-108.5 167.5t-85.5 167.5t-38.5 144.5q0 96 47.5 177t130 128.5t179.5 47.5q58 0 112.5 -18t98.5 -50.5t77 -76t51 -97.5t18 -111q0 -40 -20 -97.5t-51.5 -117.5t-69.5 -123t-76 -118.5t-69.5 -99.5t-51.5 -70zM509 576
q-63 0 -107.5 -44t-44.5 -106.5t44.5 -106.5t107.5 -44t107.5 44t44.5 106.5t-44.5 106.5t-107.5 44z" />
    <glyph glyph-name="uniE639" unicode="&#xe639;" 
d="M515 744q-56 1 -109.5 -21.5t-92 -60.5t-61.5 -90t-22 -108q0 -85 98 -241q74 -118 152 -222q14 -17 35 -17q22 0 35 17q84 113 152 222q45 72 71.5 136t26.5 105q2 74 -37 139.5t-105.5 104t-142.5 36.5v0zM535 67q-7 -10 -20 -10q-3 0 -5.5 0.5t-5.5 1.5t-5 3t-3 5
q-99 134 -156.5 240.5t-57.5 156.5q0 95 69 162q34 33 75 50t89 17q96 0 165 -67t69 -162q0 -50 -58 -157q-27 -51 -66 -110.5t-90 -129.5v0zM513 -151q-159 0 -258 26q-53 14 -81 33q-18 11 -27.5 25t-9.5 30q0 40 32 62q19 12 48.5 18.5t70.5 6.5v-37q-66 0 -98 -20
q-7 -5 -11 -12.5t-4 -17.5q0 -8 9 -16.5t30 -18t51 -17.5q49 -12 111.5 -18.5t136.5 -6.5q148 0 248 25q43 11 65.5 25t22.5 27q0 10 -11 22q-32 31 -97 31h-3l-1 38q43 0 75 -12q32 -11 52 -31q11 -11 17 -23t6 -25q0 -33 -36 -55q-28 -19 -81 -33q-97 -26 -257 -26v0z
M307 33q0 -8 -5 -14t-13 -6l-28 -2q-8 0 -13.5 5t-5.5 12q-1 8 4.5 14t13.5 6l28 2q14 0 18 -13q1 -3 1 -4zM783 33q-1 -8 -6.5 -13t-12.5 -5l-28 1q-8 0 -13.5 5.5t-5.5 13.5q1 8 6.5 13t12.5 5l28 -1q6 0 10 -2.5t6.5 -7t2.5 -9.5zM439 453.5q0 30.5 21.5 52t51.5 21.5
t51.5 -21.5t21.5 -52.5q0 -12 -3.5 -23t-10.5 -20t-16 -16t-20 -10.5t-23 -3.5q-30 0 -51.5 21.5t-21.5 52z" />
    <glyph glyph-name="uniE63A" unicode="&#xe63a;" 
d="M500 207h24q14 0 24.5 -10.5t10.5 -24.5v-163q0 -9 -5 -17t-13 -13t-17 -5h-24q-7 0 -13.5 3t-11 7.5t-7.5 11t-3 13.5v163q0 7 3 13.5t7.5 11t11 7.5t13.5 3zM884 323v-419q0 -19 -13.5 -32.5t-32.5 -13.5h-652q-9 0 -18 3.5t-15 9.5t-9.5 14.5t-3.5 18.5v419h744z
M954 393h-884v-489q0 -32 15.5 -58.5t42.5 -42t58 -15.5h652q48 0 82 34t34 82v489zM861 393h-70v70q0 116 -83 197.5t-196 81.5q-28 0 -55.5 -5.5t-52 -16.5t-47.5 -26.5t-41.5 -34t-34 -41.5t-26.5 -47.5t-16.5 -52t-5.5 -55.5v-70h-70v70q0 70 28 134.5t75 111.5
t111.5 75t134.5 28q93 0 173 -45.5t128 -126.5t48 -177v-70z" />
    <glyph glyph-name="uniE63B" unicode="&#xe63b;" 
d="M654 360l4 2q5 3 7 5q10 7 21 15q5 5 9.5 9t9.5 9q9 9 18 19q8 10 15 21t14 23q6 11 11.5 23.5t9.5 25.5t7 26q1 7 2 13.5t2 13.5q1 14 1 28t-1 28q-2 14 -5 27q-2 13 -6 26q-2 5 -3 9l-4 8q-1 4 -3 8q-5 13 -11 24q-7 13 -14 23q-7 11 -15 21q-4 5 -9 9l-9 10
q-9 9 -19 18q-6 4 -11 8t-10 7q-12 8 -23 14t-24 12q-12 5 -25 9t-26 7q-4 1 -8.5 1.5t-9.5 1t-9 1.5l-28 1q-14 0 -28 -1q-13 -2 -27 -4q-13 -3 -26 -7t-25 -9t-24 -12q-6 -3 -11.5 -6.5t-11.5 -6.5q-10 -8 -21 -16q-10 -9 -19 -18q-10 -10 -18 -19q-4 -5 -8 -10.5
t-7 -10.5q-9 -12 -14 -23q-6 -11 -12 -24q-2 -6 -4.5 -12t-4.5 -13q-4 -13 -7 -26q0 -4 -1 -8.5t-1.5 -9.5t-1.5 -9q-1 -14 -1 -28v-5v-6q0 -3 0.5 -6t0.5 -6v-5q2 -14 5 -27q2 -13 6 -26t10 -25q5 -13 11 -24q6 -12 14 -23q2 -3 4.5 -6.5t5.5 -7t5.5 -7t5.5 -6.5t6 -6.5
t6 -6.5q10 -10 19 -18q5 -4 10.5 -8t10.5 -7q2 -1 3 -2l4 -2q1 -1 2 -1q-146 -45 -238.5 -167t-92.5 -285h56q0 76 33.5 151.5t89.5 133.5t133.5 94.5t159.5 36.5t159.5 -36.5t133 -94.5t89 -133.5t33.5 -151.5h57q0 161 -91.5 283t-235.5 167zM354 463l-6 8l-6 8
q-5 8 -10 17q-1 1 -2 3t-2 3.5t-1.5 3.5t-1.5 4t-2 3q-3 9 -7 19q-3 10 -5 20q-2 11 -3 20q0 5 -0.5 10.5t-0.5 10.5q0 11 1 21t3 20t5 20q2 5 3.5 9.5t3.5 9.5q4 9 9 18q1 2 3 5t3.5 6t3.5 5.5t4 5.5t4 5.5t4 4.5q6 7 13 15q7 7 15 13t16 11.5t17 10.5q8 5 17 9t19 7t20 5
l20 3q10 1 21 1l21 -1q10 -1 20 -3q5 -1 10 -2.5t10 -2.5q9 -3 19 -7q4 -2 8.5 -4.5t9.5 -4.5q1 -1 3 -2t3 -2l4 -2q1 -1 3 -2t3 -2q8 -5 16 -12q4 -3 7.5 -6.5t7.5 -6.5q2 -3 4 -5l5 -5q2 -2 4 -5q6 -7 11.5 -15.5t10.5 -16.5q2 -5 4.5 -9.5t4.5 -8.5q3 -9 7 -19
q1 -3 1.5 -6.5t1.5 -6.5t2 -7q2 -10 3 -20q0 -5 0.5 -10.5t0.5 -10.5q0 -10 -1 -21q-1 -10 -3 -20q-3 -11 -5 -20q-4 -10 -7 -19q-5 -10 -9 -17q-4 -8 -10 -17q-5 -8 -12 -16q-6 -7 -13 -15q-4 -3 -7.5 -6.5t-7.5 -6.5l-16 -12l-16 -10l-18 -9q-5 -2 -9.5 -3.5t-9.5 -2.5
l-10 -4l-10 -2t-10 -1.5t-10 -1.5q-10 -1 -21 -1t-21 1t-20 3t-20 5q-10 4 -19 7q-4 2 -8.5 4.5t-9 4.5t-8.5 4.5t-8 5.5q-8 5 -16 12q-4 3 -7.5 6.5t-7.5 6.5q-7 7 -13 15z" />
    <glyph glyph-name="uniE63C" unicode="&#xe63c;" 
d="M512 302zM375 302q0 57 40 97t97 40t97 -40t40 -97q0 -37 -18.5 -68.5t-50 -50t-68.5 -18.5q-57 0 -97 40t-40 97zM815 330q-6 72 -44 133.5t-100 98.5t-134 42v78h-53v-79q-107 -10 -183.5 -87.5t-85.5 -185.5h-78v-53h78q9 -108 85.5 -185t183.5 -88v-79h53v78
q72 5 134 42.5t100 98.5t44 133h78v53h-78zM515 57q-67 0 -123.5 33t-89.5 90t-33 123q0 101 72.5 173.5t173.5 72.5q50 0 95.5 -19.5t78.5 -52.5t52.5 -78.5t19.5 -95.5t-19.5 -95.5t-52.5 -78.5t-78.5 -52.5t-95.5 -19.5z" />
    <glyph glyph-name="uniE63D" unicode="&#xe63d;" 
d="M914 35v2q-16 97 -189 172q-21 8 -32 13t-25.5 12.5t-22.5 12.5l-1 5q0 5 1 9q31 29 57.5 93.5t25.5 160.5v4q-2 43 -17.5 83t-42 73t-68.5 53t-93 20h-8q-42 0 -78 -13t-61 -35t-43 -51.5t-27.5 -62.5t-10.5 -68q-1 -1 -1 -3q0 -41 5.5 -79t14.5 -65t21 -50t22.5 -36.5
t20.5 -22.5q1 -5 1 -10q0 -2 -1 -5q-4 -3 -9.5 -6t-12.5 -6.5t-12.5 -6t-15 -6.5t-15 -6.5t-15.5 -7.5q-174 -74 -190 -171v-2q-6 -27 -3 -70q1 -23 15 -42t35 -28q102 -41 368 -41q260 0 361 41q21 9 34.5 28t15.5 42q3 43 -4 70zM837 -30q-86 -35 -330 -35q-250 0 -337 35
q-2 32 2 48l1 4q4 29 45.5 58.5t95.5 53.5q79 34 102 52q8 6 13.5 14.5t8.5 16.5t4.5 16t1.5 11v5q0 41 -15 61l-5 7l-7 4q-2 2 -7.5 8t-14.5 22t-16.5 37t-13 54.5t-5.5 71.5q1 13 3 27t10.5 38t22.5 42t41 32t62 14h8q36 0 63.5 -15.5t41 -35t22.5 -45t10.5 -37t2.5 -20.5
q0 -38 -5.5 -71.5t-13 -54.5t-17 -37t-14.5 -22t-7 -7l-7 -5l-5 -7q-6 -8 -11 -22.5t-5 -38.5v-2q1 -2 1.5 -6.5t1.5 -9.5t3 -11.5t5 -12t7.5 -11.5t9.5 -10q11 -9 29 -18.5t32 -16t42 -17.5q33 -15 62 -31.5t52.5 -38.5t26.5 -42l1 -4q4 -16 2 -48z" />
    <glyph glyph-name="uniE63F" unicode="&#xe63f;" 
d="M861 431v305h-174v-130l-175 174l-480 -480h87v-480h262v393h262v-393h262v480h87zM425 -180h174v349h-174v-349zM599 169h-174v-349h174v349z" />
    <glyph glyph-name="uniE640" unicode="&#xe640;" 
d="M850 402v69q0 92 -45 171t-123 124.5t-170 45.5t-170 -45.5t-123 -124.5t-45 -171v-69h-97v-468q0 -60 42.5 -103t102.5 -43h580q60 0 102.5 43t42.5 103v468h-97zM256 462q0 113 76 193t184 80q56 0 103.5 -23t80 -62.5t50.5 -93t18 -113.5v-41h-512v60zM870 0
q0 -55 -11 -83.5t-37.5 -40t-79.5 -11.5h-460q-77 0 -102.5 27t-25.5 108v326h716v-326zM512 -7q21 0 36 15t15 36v102q0 7 -1.5 14t-5 12.5t-8.5 10t-10.5 8t-12 5.5t-13.5 2q-21 0 -36 -15t-15 -37v-102q0 -33 29 -46q11 -5 22 -5z" />
    <glyph glyph-name="uniE642" unicode="&#xe642;" 
d="M172 402h679l-339 407zM851 198h-679l340 -407zM851 198z" />
    <glyph glyph-name="uniE644" unicode="&#xe644;" 
d="M478 221h68v269h-68v-269zM512 658q-101 0 -186 -49.5t-134.5 -134.5t-49.5 -186t49.5 -186t134.5 -134.5t186 -49.5t186 49.5t134.5 134.5t49.5 186q0 60 -18.5 116.5t-52.5 102.5t-80 80t-102.5 52.5t-116.5 18.5zM512 -15q-126 0 -214.5 88.5t-88.5 214.5
q0 41 11 80.5t30.5 72.5t47.5 61t61 47.5t72.5 30.5t80.5 11q126 0 214.5 -88.5t88.5 -214.5q0 -127 -90 -216q-89 -87 -213 -87zM478 86h68v67h-68v-67z" />
    <glyph glyph-name="uniE646" unicode="&#xe646;" 
d="M393 710q-21 20 -48 20q-4 0 -10.5 -1.5t-10.5 -1.5h-3q-10 -7 -24 -21l-277 -276q-20 -21 -20 -48t20 -44q21 -21 48.5 -21t47.5 21l167 167v-567q0 -18 9 -33t24 -23.5t32 -8.5q26 0 45.5 20t19.5 45v720q0 9 -2 18t-7 18t-11 16zM1004 266q-21 20 -48 20
q-13 0 -25.5 -5t-22.5 -15l-171 -171v567q0 27 -19 46t-46 19q-10 0 -19.5 -3.5t-17.5 -10t-14.5 -14.5t-9.5 -17.5t-3 -19.5v-727q0 -28 19 -46.5t45 -18.5q13 0 25.5 5t22.5 15l280 280q23 21 23.5 48.5t-19.5 47.5z" />
    <glyph glyph-name="uniE648" unicode="&#xe648;" 
d="M910 -150h-128q-17 0 -23 16l-93 241h-322l-87 -241q-6 -16 -24 -16h-119q-6 0 -11.5 2.5t-9.5 8.5q-7 10 -2 23l326 850q6 16 24 16h121q17 0 23 -15l348 -851q2 -4 2 -8t-1 -8t-3 -7q-8 -11 -21 -11zM395 249h217l-76 202q-4 10 -7.5 20t-7 19.5t-7 18.5t-6.5 17.5
t-6 17.5q-1 -4 -2.5 -8t-2.5 -8l-2 -8q-1 -4 -2.5 -8t-2.5 -8t-2.5 -8t-3 -7.5t-3 -7.5t-2.5 -8t-3 -8z" />
    <glyph glyph-name="uniE649" unicode="&#xe649;" 
d="M446 3q15 -8 31.5 -3.5t25.5 20.5l214 384v1v1q2 2 2 4q1 2 1 4q1 2 1.5 4t0.5 4v1v2v1t-0.5 2t-0.5 3t-0.5 3.5t-1.5 3.5l-1 4q0 1 -2 4l-2 2v1l-3 3l-3 3q-1 1 -2 3q-3 1 -4 2q-1 0 -1 0.5t-0.5 0.5t-0.5 1h-1q-2 0 -3 0.5t-2 1.5q-1 0 -3.5 0.5t-4.5 1t-4 0.5h-1h-1
h-299q-17 0 -29.5 -12t-12.5 -29.5t12.5 -29.5t29.5 -12h228l-180 -323q-15 -26 6 -49q5 -5 11 -8zM512 707q-70 0 -135.5 -22.5t-118.5 -63.5t-91 -96l-74 72v-203h210l-74 72q45 72 120 114.5t163 42.5q91 0 168.5 -45t122.5 -122t45 -168t-45 -168.5t-122.5 -122.5
t-168.5 -45t-168 45t-122 122.5t-45 168.5q0 17 -12.5 29.5t-29.5 12.5t-29.5 -12.5t-12.5 -29.5q0 -114 56 -210.5t152.5 -153t210.5 -56.5q86 0 163.5 33.5t133.5 89.5t89 133.5t33 163t-33 163t-89 133.5t-133.5 89.5t-163.5 33.5z" />
    <glyph glyph-name="uniE64A" unicode="&#xe64a;" 
d="M511 777q-80 0 -155 -24t-135.5 -68.5t-106 -103.5t-70.5 -132.5t-25 -151.5q0 -97 39 -186t105 -153.5t157 -102.5t191 -38t191 38t157 102.5t105 153.5t39 186q0 44 -8 86.5t-23 81t-36 74.5t-48.5 67.5t-59.5 58t-69 47.5t-76.5 35.5t-83 22t-88.5 7.5zM511 -138
q-89 0 -171.5 35t-142.5 93.5t-95.5 139t-35.5 167.5q0 70 22.5 136.5t64 120t96.5 94t122.5 62.5t139.5 22q90 0 172.5 -34.5t142 -93t95.5 -139t36 -168.5q0 -70 -23 -136t-64.5 -119.5t-96 -94t-122.5 -63t-140 -22.5zM874 343l-61 79v1q-8 9 -16.5 16.5t-20.5 13
t-24 5.5h-117q-8 0 -16 -3v34q0 11 -5.5 20.5t-14.5 15t-20 5.5h-128q-5 6 -11 11q-15 15 -33 25t-38.5 15.5t-41.5 5.5q-16 0 -31.5 -3t-29.5 -9t-27 -14.5t-25 -19.5q-15 -15 -25.5 -32.5t-16 -37t-5.5 -40.5q0 -50 30 -90v-196q0 -16 13 -29t29 -13h32q3 -20 15 -36
t30.5 -25.5t39.5 -9.5q33 0 57 20.5t29 50.5h136q8 0 15.5 3t13.5 9q12 -12 28 -12h17q5 -30 29 -50.5t56 -20.5q24 0 44 11t31.5 30.5t11.5 42.5q0 35 -25.5 60t-61.5 25q-16 0 -30.5 -5.5t-26 -15t-19 -23t-9.5 -28.5h-17q-6 0 -11 5t-5 11v272q0 5 5 10t11 5h117
q6 0 12.5 -3t13.5 -8.5t14 -14.5l4 -5h-73q-7 0 -13.5 -2t-12 -6t-9.5 -9.5t-6 -11.5t-2 -13v-57q0 -16 13 -28.5t30 -12.5h147v-116q0 -4 -2 -7.5t-6 -6t-8 -2.5h-29v-26h29q17 0 30 13t13 29v137q0 30 -23 61zM737 175q7 0 14 -1.5t12.5 -4.5t11 -7t9.5 -9t7 -11
t4.5 -12.5t1.5 -13.5q0 -24 -17.5 -41t-42.5 -17t-42.5 17t-17.5 41.5t17.5 41.5t42.5 17zM327 561q55 0 94 -38t39 -92q0 -21 -6.5 -41t-19 -36t-29 -28t-36.5 -18.5t-42 -6.5q-55 0 -94 38t-39 92q0 35 18 65t48.5 47.5t66.5 17.5zM357 58q-25 0 -42.5 17t-17.5 41.5
t17.5 41.5t42.5 17q9 0 18.5 -3t16.5 -8.5t12.5 -12.5t8.5 -16t3 -19q0 -36 -33 -52q-13 -6 -26 -6zM592 143q0 -4 -2 -7t-5 -5t-7 -2h-136q-5 31 -29 51.5t-56.5 20.5t-56.5 -20.5t-29 -51.5h-32q-2 0 -4.5 1t-4.5 2.5t-3.5 3.5t-2.5 4.5t-1 4.5v167q22 -18 48.5 -27.5
t55.5 -9.5q66 0 113 45.5t47 110.5q0 39 -18 73h110q5 0 9 -4.5t4 -10.5v-72v-272v-2zM723 287q-6 0 -11 5t-5 10v57q0 5 2.5 8.5t6 5.5t7.5 2h93l36 -47q16 -22 18 -41h-147zM392 540l-75 -96l77 2l-112 -121l55 95l-79 2l87 111z" />
    <glyph glyph-name="uniE64B" unicode="&#xe64b;" 
d="M913 400q-9 10 -23 14q-9 3 -20 3h-230q-5 -1 -11.5 4t-7.5 10l-66 239q-4 13 -10 22q-3 4 -6.5 7.5t-11 7t-15.5 3.5q-12 0 -20 -5.5t-13 -12.5q-6 -9 -10 -22l-66 -239q-1 -5 -7.5 -10t-11.5 -4h-230q-4 0 -6.5 -0.5t-6 -1t-7 -1.5t-7.5 -2q-3 -2 -5.5 -3t-5.5 -3
l-5 -6q-9 -11 -8 -24q0 -15 10 -28q7 -7 16 -14l186 -122q3 -1 6 -7.5t3 -11.5l-1 -4l-72 -236q-4 -12 -4 -22q1 -14 8 -25q5 -7 14 -11.5t17 -4.5h6l4 2q3 0 5 0.5t3.5 1.5t3.5 2l3 2q1 0 3 1.5t3 2t3 2t3 2.5l181 154q3 3 9 3t10 -3l191 -155q0 -1 3 -3t3.5 -2.5t3.5 -2
t4.5 -2.5t4 -2t5 -1.5t5.5 -1t6 -0.5h2q3 0 7.5 1t8 3t7.5 5t6.5 6.5t4 7t1.5 6.5l2 6v6v4q0 2 -0.5 4t-1 3.5t-0.5 3.5l-2 4v3l-81 238q0 1 -0.5 2t-0.5 2q0 3 1.5 7t3 7t3.5 3l185 122q9 7 16 14q10 13 10 28q0 6 -2 12.5t-6 11.5z" />
    <glyph glyph-name="uniE64D" unicode="&#xe64d;" horiz-adv-x="1025" 
d="M512 703q55 0 107.5 -14.5t96.5 -40.5t81.5 -63t63.5 -81.5t40.5 -96.5t14.5 -107q0 -82 -32 -156.5t-86 -128.5t-129 -86t-157 -32q-109 0 -202 54t-147 147t-54 202t54 202t147 147t202 54zM512 748q-91 0 -174 -35.5t-143 -95.5t-95.5 -143t-35.5 -174t35.5 -174
t95.5 -143t143 -95.5t174.5 -35.5t174.5 35.5t143 95.5t95.5 143t35.5 174q0 186 -131.5 317t-317.5 131zM649 503q-18 0 -50 9.5t-56 18.5l-23 9q-86 -37 -125 -37q-15 0 -31 2t-28.5 5.5t-24.5 7.5t-21 7.5t-15.5 7t-9.5 5.5l-4 2v-316q0 -28 14 -54.5t36.5 -46.5
t49.5 -37.5t54 -30t49 -21t36 -12.5l14 -4q6 1 14.5 3.5t34.5 12.5t49.5 21t52.5 29t49.5 37.5t34.5 46t14 54.5v318q-5 -4 -15 -10t-40 -16.5t-59 -10.5zM721 229q-239 -75 -348 -107q-20 16 -36.5 35.5t-22.5 30.5l-7 12l414 123v-94zM721 363l-418 -121v94l418 121v-94z
" />
    <glyph glyph-name="uniE64E" unicode="&#xe64e;" 
d="M506 541q0 5 -1.5 8.5t-4.5 6.5t-7 5t-8 2q-6 0 -11 -3t-8 -8t-3 -11v-254v-5q0 -3 2 -10t6 -13t13 -10.5t22 -4.5h230h1q8 0 14.5 6.5t6.5 14.5q0 6 -3 11t-8 8t-10 3h-231v254zM959 302q0 91 -35.5 174t-95.5 143t-143 95.5t-174 35.5t-174 -35.5t-143 -95.5
t-95.5 -143t-35.5 -174t35.5 -174t95.5 -143t143 -95.5t174 -35.5q149 0 270 92q5 5 5 13t-6 13.5t-14 5.5q-9 0 -14 -6h-1q-51 -38 -112 -58.5t-127 -20.5q-111 0 -204.5 54.5t-147.5 148t-54 203.5t54 203.5t147.5 148t204 54.5t204 -54.5t147.5 -148t54 -203.5
q0 -103 -46 -190q-1 -4 -1 -6q0 -5 2.5 -9.5t7 -7t10.5 -2.5q14 0 18 13v-1q17 32 28 64.5t17 68.5t6 73zM250 292h-145q-4 0 -7.5 -1.5t-6.5 -4t-4.5 -6.5t-1.5 -8q0 -9 6 -15t14 -6h145q9 0 15 6t6 15q0 4 -2 8t-4.5 6.5t-6.5 4t-8 1.5zM482 744q-4 0 -8 -2t-6.5 -4.5
t-4.5 -6.5t-2 -8v-54q0 -3 1 -6t3 -6t4.5 -4.5t5.5 -2.5t7 -1t7.5 1.5t6.5 4t4.5 6.5t1.5 8v54q0 4 -1.5 8t-4.5 6.5t-6.5 4.5t-7.5 2zM481.5 87q-8.5 0 -14.5 -6t-6 -15v-188q0 -8 6 -14t14.5 -6t14.5 6t6 14v188q0 9 -6 15t-14.5 6zM917 292h-54q-4 0 -8 -1.5t-6.5 -4
t-4.5 -6.5t-2 -8q0 -9 6 -15t15 -6h54q8 0 14 6t6 15q0 4 -1.5 8t-4 6.5t-6.5 4t-8 1.5z" />
    <glyph glyph-name="uniE650" unicode="&#xe650;" horiz-adv-x="2276" 
d="M1853 511v0l-79 260q-2 6 -3 0l-79 -260q-7 -21 -19 -38.5t-28 -30t-36 -19.5t-40 -7h-256q-1 0 -2 -1.5t-0.5 -4t1.5 -3.5l208 -162q22 -17 35 -42t16 -52t-5 -55l-80 -262q-1 -6 2 -7l208 162q34 26 76.5 26t76.5 -26l209 -163l1 4v2l-80 263q-12 42 0.5 83t45.5 67
l209 163q4 4 0 8h-257q-43 0 -77 26.5t-47 68.5zM1890 522q9 -30 33 -49t54 -19h257q29 0 38 -29t-15 -47l-208 -163q-16 -12 -26 -30t-11.5 -38t4.5 -41l79 -263q9 -29 -14 -47t-46 0l-209 163q-24 18 -53.5 18t-53.5 -18l-208 -162q-23 -18 -46.5 0t-14.5 48l79 262
q6 20 4 40t-11.5 38t-24.5 30l-208 162q-11 8 -14.5 22t0 26t14 20.5t24.5 8.5h256q19 0 36.5 8.5t30.5 24t19 35.5l79 260q6 19 22 26.5t32.5 0t22.5 -26.5zM638 522q6 -20 19 -35.5t30.5 -24t37.5 -8.5h258q28 0 37 -29t-14 -47l-209 -163q-16 -12 -25.5 -30t-11.5 -38
t4 -41l80 -263q9 -29 -14.5 -47t-46.5 0l-209 163q-24 18 -53.5 18t-53.5 -18l-207 -162q-24 -18 -47.5 0t-14.5 48l80 262q9 30 0 60t-33 48l-208 162q-15 11 -16.5 30t10 33t30.5 14h256q30 0 54 18.5t33 49.5l79 260q4 15 15 22.5t23 7.5t23 -7.5t15 -22.5z" />
    <glyph glyph-name="uniE651" unicode="&#xe651;" 
d="M732 430q55 0 94 39t39 94v1v0v2q0 36 -18 66.5t-48.5 48t-66.5 17.5q-55 0 -94 -39t-39 -93v-2v0v-1q0 -14 4 -30l-244 -160q-39 38 -93 38q-37 0 -67.5 -17.5t-48.5 -48.5t-18 -67l1 -1l-1 -1q0 -55 39 -94t95 -39q58 0 98 44l235 -172v-2v-1v-1v-1q0 -54 39 -93
t94 -39t94 39t39 93v2v0v1q0 55 -39 94t-94 39q-35 0 -65 -17t-48 -46l-224 164q4 16 4 28v1v1v1q0 16 -6 35l242 159q40 -42 97 -42zM732 430z" />
    <glyph glyph-name="uniE652" unicode="&#xe652;" 
d="M414.5 844q-96.5 0 -178.5 -47.5t-129.5 -129.5t-47.5 -178.5t47.5 -178t129.5 -129t178.5 -47.5t178 47.5t129 129t47.5 178t-47.5 178.5t-129 129.5t-178 47.5zM413 210q-113 0 -193.5 80.5t-80.5 193.5q0 74 37 137t100 99.5t137 36.5q113 0 193 -80t80 -193
t-80 -193.5t-193 -80.5zM621 201l44 36l35 -35l31 30l241 -238l-112 -112l-234 243l34 34z" />
    <glyph glyph-name="uniE658" unicode="&#xe658;" 
d="M512 12l-288 288l32 32h128v256l32 32h192l32 -32v-256h128l32 -32z" />
    <glyph glyph-name="uniE659" unicode="&#xe659;" 
d="M512 620l-288 -288l32 -32h128v-256l32 -32h192l32 32v256h128l32 32z" />
    <glyph glyph-name="uniE65D" unicode="&#xe65d;" 
d="M162 400l-30 -26q-2 -2 -2.5 -3.5t0.5 -3.5l7 -42q0 -2 -0.5 -4t-2.5 -3q-2 -2 -5 -2q-2 0 -4 1l-38 20q-4 2 -8 0l-36 -20q-3 -1 -5.5 -1t-4.5 2q-2 1 -3 3t-1 4l9 43q1 4 -3 7l-31 25q-4 4 -3 9q1 2 3 3.5t5 2.5l41 7q4 2 6 4l19 41q1 2 3 3t5 1q5 0 8 -4l18 -41
q3 -3 6 -4l42 -7q5 -2 7 -6q2 -5 -2 -9zM162 400zM377 400l-31 -26q-1 -2 -1.5 -3.5t-0.5 -3.5l7 -42q1 -5 -2 -7t-6 -2q-2 0 -4 1l-38 20q-4 2 -7 0l-37 -20q-5 -3 -9 1q-2 1 -3.5 3t-0.5 4l8 43q1 4 -2 7l-32 25q-4 4 -2 9q1 2 3 3.5t4 2.5l41 7q5 2 7 4l19 41q2 4 7.5 4
t7.5 -4l19 -41q1 -3 6 -4l42 -7q5 -2 7 -6q2 -5 -2 -9zM377 400zM591 400l-30 -26l-2 -7l7 -42q1 -5 -3 -7q-2 -2 -5 -2q-2 0 -4 1l-38 20h-8l-36 -20q-5 -3 -10 1q-2 1 -3 3t-1 4l9 43q1 4 -2 7l-32 25q-4 4 -2 9q0 2 2 3.5t5 2.5l41 7q2 0 3 2l3 2l19 41q3 4 8 4t8 -4
l18 -41q2 -3 6 -4l42 -7q5 -2 7 -6q2 -5 -2 -9zM591 400z" />
    <glyph glyph-name="uniE65E" unicode="&#xe65e;" 
d="M162 400l-30 -26q-2 -2 -2.5 -3.5t0.5 -3.5l7 -42q0 -2 -0.5 -4t-2.5 -3q-2 -2 -5 -2q-2 0 -4 1l-38 20q-4 2 -8 0l-36 -20q-3 -1 -5.5 -1t-4.5 2q-2 1 -3 3t-1 4l9 43q1 4 -3 7l-31 25q-4 4 -3 9q1 2 3 3.5t5 2.5l41 7q4 2 6 4l19 41q1 2 3 3t5 1q5 0 8 -4l18 -41
q3 -3 6 -4l42 -7q5 -2 7 -6q2 -5 -2 -9zM162 400z" />
    <glyph glyph-name="uniE660" unicode="&#xe660;" 
d="M162 400l-30 -26q-2 -2 -2.5 -3.5t0.5 -3.5l7 -42q0 -2 -0.5 -4t-2.5 -3q-2 -2 -5 -2q-2 0 -4 1l-38 20q-4 2 -8 0l-36 -20q-3 -1 -5.5 -1t-4.5 2q-2 1 -3 3t-1 4l9 43q1 4 -3 7l-31 25q-4 4 -3 9q1 2 3 3.5t5 2.5l41 7q4 2 6 4l19 41q1 2 3 3t5 1q5 0 8 -4l18 -41
q3 -3 6 -4l42 -7q5 -2 7 -6q2 -5 -2 -9zM162 400zM377 400l-31 -26q-1 -2 -1.5 -3.5t-0.5 -3.5l7 -42q1 -5 -2 -7t-6 -2q-2 0 -4 1l-38 20q-4 2 -7 0l-37 -20q-5 -3 -9 1q-2 1 -3.5 3t-0.5 4l8 43q1 4 -2 7l-32 25q-4 4 -2 9q1 2 3 3.5t4 2.5l41 7q5 2 7 4l19 41q2 4 7.5 4
t7.5 -4l19 -41q1 -3 6 -4l42 -7q5 -2 7 -6q2 -5 -2 -9zM377 400zM591 400l-30 -26l-2 -7l7 -42q1 -5 -3 -7q-2 -2 -5 -2q-2 0 -4 1l-38 20h-8l-36 -20q-5 -3 -10 1q-2 1 -3 3t-1 4l9 43q1 4 -2 7l-32 25q-4 4 -2 9q0 2 2 3.5t5 2.5l41 7q2 0 3 2l3 2l19 41q3 4 8 4t8 -4
l18 -41q2 -3 6 -4l42 -7q5 -2 7 -6q2 -5 -2 -9zM591 400zM806 400l-30 -26l-3 -7l7 -42q1 -5 -2 -7t-5 -2q-3 0 -5 1l-38 20q-3 2 -7 0l-37 -20q-5 -3 -9 1q-2 1 -3.5 3t-0.5 4l8 43q1 4 -2 7l-32 25q-4 4 -2 9q1 2 3 3.5t4 2.5l42 7q2 0 4 2l2 2l19 41q2 4 7.5 4t7.5 -4
l19 -41q2 -3 6 -4l42 -7q5 -2 7 -6q2 -5 -2 -9zM806 400zM1020 400l-30 -26l-2 -7l7 -42q0 -2 -0.5 -4t-2.5 -3l-5 -2q-2 0 -4 1l-38 20q-4 2 -8 0l-36 -20q-5 -3 -9 1q-3 1 -4 3t-1 4l9 43q1 4 -2 7l-32 25q-4 4 -2 9q0 2 2 3.5t5 2.5l41 7q2 0 4 2l2 2l19 41q3 4 8.5 4
t7.5 -4l18 -41q2 -3 6 -4l42 -7q3 -1 5 -2.5t3 -3.5v-3q0 -2 -1 -3.5t-2 -2.5zM1020 400z" />
    <glyph glyph-name="uniE661" unicode="&#xe661;" horiz-adv-x="5142" 
d="M512 895l158 -321l354 -51l-256 -250l61 -352l-317 166l-316 -166l60 352l-256 250l354 51zM1536 895l159 -321l353 -51l-256 -250l61 -352l-317 166l-316 -166l60 352l-256 250l354 51zM2566 895l159 -321l353 -51l-256 -250l61 -352l-317 166l-316 -166l60 352
l-256 250l354 51zM3599 895l158 -321l354 -51l-256 -250l61 -352l-317 166l-317 -166l61 352l-256 250l354 51zM4626 895l159 -321l353 -51l-256 -250l61 -352l-317 166l-316 -166l60 352l-256 250l354 51z" />
    <glyph glyph-name="uniE662" unicode="&#xe662;" horiz-adv-x="5142" 
d="M512 895l158 -321l354 -51l-256 -250l61 -352l-317 166l-316 -166l60 352l-256 250l354 51zM1536 895l159 -321l353 -51l-256 -250l61 -352l-317 166l-316 -166l60 352l-256 250l354 51zM2566 895l159 -321l353 -51l-256 -250l61 -352l-317 166l-316 -166l60 352
l-256 250l354 51z" />
    <glyph glyph-name="uniE663" unicode="&#xe663;" horiz-adv-x="5142" 
d="M512 895l158 -321l354 -51l-256 -250l61 -352l-317 166l-316 -166l60 352l-256 250l354 51z" />
    <glyph glyph-name="uniE669" unicode="&#xe669;" 
d="M333 255v1h353h1v0h2q17 0 32.5 -9t24.5 -24t9 -33q0 -19 -13 -37l1 -1l-1 -2h1l-170 -293q0 -1 -5 -9l-2 -4q-20 -29 -54 -29q-19 0 -34 10t-24 26l-173 301l1 1q-13 18 -13 37q0 26 19 45.5t45 19.5zM512 -72l138 240h-276zM691 345v-1h-353v1l-1 -1h-2
q-27 0 -46.5 19.5t-19.5 46.5q0 11 4 20.5t10 18.5l-1 1l169 293q0 1 5 10l2 3q20 29 54 29q22 0 38.5 -12.5t23.5 -32.5l166 -287l-1 -1q16 -19 16 -42q0 -5 -1 -10t-2.5 -10t-4 -9.5t-5 -8.5t-6 -7.5t-7.5 -6.5t-8.5 -5.5t-9.5 -4t-10 -2.5t-10 -1zM691 345z" />
    <glyph glyph-name="uniE66A" unicode="&#xe66a;" 
d="M691 429v-1h-354h-2q-27 0 -46.5 19.5t-19.5 46.5q0 19 13 37l-1 1l1 2h-1l170 293q0 1 5 9l2 4q6 9 14 15.5t18.5 10t21.5 3.5q13 0 24 -4.5t19.5 -13t14.5 -18.5l173 -301l-1 -1q13 -18 13 -37q0 -13 -5 -25t-14 -20.5t-20.5 -14t-24.5 -5.5v0zM512 756l-138 -240h276z
M333 339v1h353v-1l1 1h2q27 0 46.5 -19.5t19.5 -46.5q0 -20 -14 -39l1 -1l-169 -293q0 -1 -5 -10l-2 -3q-20 -29 -54 -29q-6 0 -12 1t-11.5 3t-10.5 5t-9 7t-8 8.5t-6.5 9.5t-4.5 11l-166 287l1 1q-7 9 -11.5 19.5t-4.5 22.5q0 13 5 25t14 20.5t20.5 14t24.5 5.5v0zM333 339
z" />
    <glyph glyph-name="uniE66C" unicode="&#xe66c;" 
d="M684 349l-173 -174l-173 174l-49 -49l181 -180l33 -33l8 -8l7 8l214 213z" />
    <glyph glyph-name="uniE670" unicode="&#xe670;" 
d="M512 32l-288 288l32 32h128v256l32 32h192l32 -32v-256h128l32 -32z" />
    <glyph glyph-name="uniE671" unicode="&#xe671;" 
d="M512 640l-288 -288l32 -32h128v-256l32 -32h192l32 32v256h128l32 32z" />
    <glyph glyph-name="uniE672" unicode="&#xe672;" 
d="M425 681q-7 7 -16 10.5t-18 3.5q-2 0 -5 -0.5t-5.5 -1t-4.5 -0.5h-2q-5 -3 -9 -6.5t-9 -8.5l-200 -200q-15 -15 -15 -34.5t15 -32.5q5 -5 10.5 -8t11.5 -5t13 -2q19 0 34 15l121 121v-410q0 -20 14 -33.5t33 -13.5t33 14t14 33v522q0 22 -15 37zM868 359q-15 15 -34.5 15
t-34.5 -15l-124 -123v410q0 20 -14 33.5t-33 13.5q-18 0 -32.5 -14t-14.5 -33v-526q0 -14 6.5 -24.5t17.5 -16.5t23 -6q20 0 35 14l202 203q17 15 17.5 35t-14.5 34z" />
    <glyph glyph-name="uniE674" unicode="&#xe674;" 
d="M260 662h133v-324h-133v324zM141 338l186 -278l185 278h-371zM883 430l-186 278l-185 -278h371zM631 431h133v-324h-133v324z" />
    <glyph glyph-name="uniE675" unicode="&#xe675;" 
d="M452 82h-98v409h-119l217 218v-627zM573 685h97v-407h120l-217 -218v625z" />
  </font>
</defs>
</svg>
